<svg width="2158" height="2270" viewBox="0 0 2158 2270" fill="none" xmlns="http://www.w3.org/2000/svg">
<g filter="url(#filter0_bf_326_50)">
<rect x="250.499" y="1056" width="390" height="150" fill="white" fill-opacity="0.01"/>
</g>
<path d="M431.6 857.203C138.734 688.159 -81.572 1010.63 52.9158 1195.73C141.319 1317.4 241.777 1351.12 361.162 1262.34C458.682 1189.83 503.602 1270.58 576.097 1280.15C703.62 1296.99 724.712 1212.27 906.09 1211.69C1087.47 1211.12 1102.36 1010.56 1046.54 889.904C990.734 769.251 837.394 730.982 746.277 771.67C567.752 851.393 630.248 971.863 431.6 857.203Z" fill="url(#paint0_linear_326_50)"/>
<path d="M336.93 1218.31C127.211 1319.34 0.645596 1081.5 104.518 947.214C148.72 890.07 209.164 827.952 301.372 892.358C376.693 944.968 415.139 872.172 479.159 883.572C534.051 893.346 601.339 873.994 648.061 904.438C745.734 968.08 811.581 971.979 738.052 1126.28C726.732 1150.03 747.759 1230.37 654.962 1254.28C544.119 1282.83 490.358 1135.12 336.93 1218.31Z" fill="url(#paint1_linear_326_50)"/>
<g style="mix-blend-mode:overlay">
<path fill-rule="evenodd" clip-rule="evenodd" d="M431.174 922.26C345.348 789.901 147.055 874.042 205.899 641.834C264.742 409.627 576.175 291.338 759.232 419.046C942.29 546.753 1010.79 611.05 1086.07 586.696C1161.34 562.342 1343.49 536.903 1393.3 643.877C1443.11 750.852 1440.76 825.314 1291.29 890.288C1141.81 955.261 1042.97 948.302 972.513 936.126C902.058 923.95 773.251 1174.93 625.82 1144.44C478.389 1113.95 517.001 1054.62 431.174 922.26Z" stroke="url(#paint2_linear_326_50)" stroke-width="1.25714"/>
<path opacity="0.985714" fill-rule="evenodd" clip-rule="evenodd" d="M435.617 928.268C347.538 797.491 150.896 885.002 205.607 651.946C260.319 418.889 569.402 295.297 754.545 419.743C939.689 544.19 1009.26 607.255 1084.04 581.616C1158.83 555.977 1340.37 527.404 1392.01 633.438C1443.66 739.473 1442.63 813.921 1294.42 881.434C1146.22 948.947 1047.34 943.703 976.729 932.755C906.121 921.808 781.837 1174.83 633.998 1146.92C486.16 1119 523.695 1059.05 435.617 928.268Z" stroke="url(#paint3_linear_326_50)" stroke-width="1.25714"/>
<path opacity="0.971429" fill-rule="evenodd" clip-rule="evenodd" d="M440.16 934.194C349.858 805.037 154.925 895.886 205.492 662.054C256.059 428.222 562.703 299.372 749.874 420.524C937.045 541.675 1007.66 603.49 1081.93 576.576C1156.2 549.662 1337.09 517.968 1390.55 623.031C1444.01 728.094 1444.29 802.506 1297.4 872.534C1150.51 942.561 1051.62 939.032 980.884 929.314C910.145 919.596 790.416 1174.59 642.214 1149.25C494.012 1123.91 530.462 1063.35 440.16 934.194Z" stroke="url(#paint4_linear_326_50)" stroke-width="1.25714"/>
<path opacity="0.957143" fill-rule="evenodd" clip-rule="evenodd" d="M444.802 940.034C352.307 812.535 159.138 906.689 205.55 672.155C251.963 437.621 556.078 303.562 745.219 421.385C934.36 539.209 1006 599.757 1079.74 571.577C1153.47 543.398 1333.64 508.599 1388.9 612.659C1444.17 716.72 1445.75 791.072 1300.22 863.589C1154.69 936.106 1055.83 934.29 984.976 925.803C914.127 917.316 798.984 1174.19 650.464 1151.43C501.944 1128.68 537.297 1067.53 444.802 940.034Z" stroke="url(#paint5_linear_326_50)" stroke-width="1.25714"/>
<path opacity="0.942857" fill-rule="evenodd" clip-rule="evenodd" d="M449.542 945.788C354.884 819.983 163.536 917.409 205.785 682.247C248.034 447.085 549.532 307.864 740.583 422.329C931.633 536.793 1004.28 596.056 1077.45 566.622C1150.63 537.188 1330.03 499.298 1387.08 602.325C1444.13 705.352 1447.02 779.621 1302.89 854.602C1158.75 929.582 1059.94 929.478 989.005 922.223C918.067 914.968 807.539 1173.64 658.745 1153.47C509.952 1133.31 544.2 1071.59 449.542 945.788Z" stroke="url(#paint6_linear_326_50)" stroke-width="1.25714"/>
<path opacity="0.928571" fill-rule="evenodd" clip-rule="evenodd" d="M454.378 951.453C357.588 827.381 168.115 928.043 206.193 692.327C244.271 456.611 543.064 312.279 735.966 423.353C928.867 534.427 1002.49 592.389 1075.09 561.712C1147.68 531.034 1326.27 490.07 1385.08 592.032C1443.89 693.995 1448.09 768.159 1305.39 845.576C1162.7 922.994 1063.97 924.599 992.967 918.576C921.962 912.553 816.077 1172.94 667.055 1155.37C518.034 1137.79 551.167 1075.53 454.378 951.453Z" stroke="url(#paint7_linear_326_50)" stroke-width="1.25714"/>
<path opacity="0.914286" fill-rule="evenodd" clip-rule="evenodd" d="M459.308 957.029C360.418 834.724 172.876 938.587 206.776 702.39C240.676 466.194 536.679 316.804 731.37 424.458C926.062 532.112 1000.65 588.756 1072.64 556.846C1144.63 524.937 1322.35 480.914 1382.9 581.783C1443.46 682.652 1448.95 756.687 1307.74 836.514C1166.53 916.34 1067.92 919.652 996.865 914.862C925.814 910.072 824.598 1172.1 675.393 1157.11C526.188 1142.12 558.198 1079.33 459.308 957.029Z" stroke="url(#paint8_linear_326_50)" stroke-width="1.25714"/>
<path opacity="0.9" fill-rule="evenodd" clip-rule="evenodd" d="M464.331 962.513C363.373 842.011 177.815 949.038 207.532 712.435C237.249 475.832 530.375 321.437 726.797 425.642C923.219 529.848 998.737 585.159 1070.11 552.029C1141.48 518.899 1318.27 471.836 1380.55 571.581C1442.83 671.326 1449.62 745.209 1309.93 827.417C1170.25 909.625 1071.77 914.64 1000.69 911.082C929.618 907.524 833.096 1171.1 683.753 1158.7C534.41 1146.31 565.289 1083.01 464.331 962.513Z" stroke="url(#paint9_linear_326_50)" stroke-width="1.25714"/>
<path opacity="0.885714" fill-rule="evenodd" clip-rule="evenodd" d="M469.447 967.904C366.453 849.24 182.933 959.394 208.463 722.458C233.993 485.523 524.158 326.178 722.249 426.906C920.34 527.635 996.768 581.599 1067.5 547.26C1138.23 512.921 1314.04 462.837 1378.02 561.429C1442 660.02 1450.09 733.73 1311.97 818.29C1173.84 902.85 1075.54 909.564 1004.46 907.238C933.377 904.912 841.572 1169.95 692.136 1160.15C542.7 1150.34 572.44 1086.57 469.447 967.904Z" stroke="url(#paint10_linear_326_50)" stroke-width="1.25714"/>
<path opacity="0.871429" fill-rule="evenodd" clip-rule="evenodd" d="M474.649 973.199C369.654 856.408 188.224 969.65 209.565 732.456C230.905 495.262 518.026 331.023 717.724 428.249C917.422 525.475 994.736 578.075 1064.8 542.54C1134.87 507.004 1309.66 453.92 1375.32 551.329C1440.98 648.738 1450.36 722.251 1313.84 809.134C1177.31 896.017 1079.21 904.425 1008.15 903.33C937.086 902.234 850.02 1168.66 700.535 1161.45C551.051 1154.23 579.644 1089.99 474.649 973.199Z" stroke="url(#paint11_linear_326_50)" stroke-width="1.25714"/>
<path opacity="0.857143" fill-rule="evenodd" clip-rule="evenodd" d="M479.941 978.4C372.978 863.515 193.691 979.805 210.841 742.427C227.991 505.048 511.985 335.973 713.228 429.671C914.472 523.368 992.648 574.591 1062.03 537.872C1131.41 501.153 1305.12 445.088 1372.45 541.286C1439.77 637.484 1450.43 710.777 1315.55 799.953C1180.67 889.129 1082.79 899.226 1011.77 899.361C940.748 899.495 858.441 1167.22 708.953 1162.59C559.465 1157.97 586.905 1093.28 479.941 978.4Z" stroke="url(#paint12_linear_326_50)" stroke-width="1.25714"/>
<path opacity="0.842857" fill-rule="evenodd" clip-rule="evenodd" d="M485.318 983.501C376.422 870.556 199.327 989.854 212.287 752.366C225.247 514.877 506.033 341.024 708.76 431.169C911.486 521.314 990.499 571.145 1059.18 533.256C1127.86 495.366 1300.44 436.342 1369.4 531.3C1438.36 626.259 1450.3 699.311 1317.1 790.748C1183.9 882.186 1086.28 893.968 1015.32 895.33C944.358 896.692 866.829 1165.63 717.383 1163.59C567.936 1161.56 594.215 1096.45 485.318 983.501Z" stroke="url(#paint13_linear_326_50)" stroke-width="1.25714"/>
<path opacity="0.828571" fill-rule="evenodd" clip-rule="evenodd" d="M490.78 988.507C379.985 877.533 205.134 999.799 213.905 762.274C222.675 524.749 500.173 346.179 704.32 432.749C908.468 519.318 988.293 567.744 1056.25 528.696C1124.21 489.649 1295.61 427.688 1366.18 521.38C1436.75 615.071 1449.97 687.859 1318.49 781.527C1187.01 875.195 1089.67 888.655 1018.8 891.243C947.918 893.83 875.184 1163.89 725.823 1164.44C576.463 1164.99 601.575 1099.48 490.78 988.507Z" stroke="url(#paint14_linear_326_50)" stroke-width="1.25714"/>
<path opacity="0.814286" fill-rule="evenodd" clip-rule="evenodd" d="M496.324 993.409C383.666 884.438 211.109 1009.63 215.693 772.142C220.277 534.654 494.407 351.43 699.912 434.401C905.417 517.372 986.029 564.38 1053.24 524.189C1120.46 483.998 1290.63 419.123 1362.8 511.52C1434.96 603.917 1449.45 676.419 1319.72 772.285C1189.99 868.152 1092.98 883.284 1022.2 887.094C951.424 890.905 883.502 1162.01 734.272 1165.14C585.043 1168.27 608.982 1102.38 496.324 993.409Z" stroke="url(#paint15_linear_326_50)" stroke-width="1.25714"/>
<path opacity="0.8" fill-rule="evenodd" clip-rule="evenodd" d="M501.947 998.212C387.463 891.276 217.247 1019.35 217.649 781.973C218.05 544.597 488.736 356.781 695.535 436.133C902.334 515.485 983.708 561.061 1050.16 519.741C1116.62 478.42 1285.51 410.656 1359.24 501.731C1432.97 592.807 1448.73 665 1320.79 763.032C1192.85 861.064 1096.18 877.861 1025.53 882.892C954.877 887.923 891.779 1159.99 742.725 1165.7C593.671 1171.4 616.431 1105.15 501.947 998.212Z" stroke="url(#paint16_linear_326_50)" stroke-width="1.25714"/>
<path opacity="0.785714" fill-rule="evenodd" clip-rule="evenodd" d="M507.65 1002.91C391.376 898.04 223.551 1028.95 219.775 791.761C216 554.569 483.164 362.225 691.193 437.939C899.222 513.653 981.333 557.785 1047.01 515.349C1112.68 472.913 1280.25 402.284 1355.52 492.011C1430.8 581.739 1447.81 653.601 1321.7 753.766C1195.59 853.931 1099.29 872.385 1028.78 878.633C958.276 884.882 900.016 1157.82 751.182 1166.1C602.348 1174.38 623.924 1107.78 507.65 1002.91Z" stroke="url(#paint17_linear_326_50)" stroke-width="1.25714"/>
<path opacity="0.771429" fill-rule="evenodd" clip-rule="evenodd" d="M513.43 1007.51C395.403 904.73 230.015 1038.44 222.069 801.503C214.122 564.569 477.689 367.764 686.885 439.82C896.081 511.876 978.903 554.553 1043.78 511.017C1108.65 467.48 1274.84 394.011 1351.64 482.365C1428.43 570.718 1446.69 642.228 1322.44 744.491C1198.2 846.754 1102.3 866.858 1031.96 874.32C961.62 881.782 908.209 1155.5 759.639 1166.35C611.07 1177.2 631.457 1110.28 513.43 1007.51Z" stroke="url(#paint18_linear_326_50)" stroke-width="1.25714"/>
<path opacity="0.757143" fill-rule="evenodd" clip-rule="evenodd" d="M519.283 1011.99C399.542 911.343 236.637 1047.8 224.528 811.198C212.419 574.595 472.314 373.394 682.613 441.775C892.911 510.156 976.418 551.367 1040.48 506.744C1104.53 462.122 1269.3 385.841 1347.59 472.794C1425.87 559.748 1445.38 630.883 1323.03 735.211C1200.68 839.538 1105.21 861.283 1035.06 869.955C964.907 878.627 916.354 1153.05 768.093 1166.45C619.832 1179.86 639.025 1112.64 519.283 1011.99Z" stroke="url(#paint19_linear_326_50)" stroke-width="1.25714"/>
<path opacity="0.742857" fill-rule="evenodd" clip-rule="evenodd" d="M525.21 1016.38C403.792 917.878 243.417 1057.04 227.154 820.84C210.891 584.642 467.042 379.115 678.378 443.804C889.714 508.493 973.88 548.226 1037.1 502.533C1100.32 456.84 1263.62 377.774 1343.37 463.302C1423.13 548.831 1443.87 619.57 1323.45 725.927C1203.04 832.283 1108.03 855.66 1038.08 865.538C968.136 875.415 924.45 1150.45 776.542 1166.41C628.633 1182.36 646.629 1114.87 525.21 1016.38Z" stroke="url(#paint20_linear_326_50)" stroke-width="1.25714"/>
<path opacity="0.728571" fill-rule="evenodd" clip-rule="evenodd" d="M531.209 1020.65C408.153 924.334 250.352 1066.15 229.946 830.43C209.54 594.709 461.874 384.925 674.183 445.907C886.492 506.889 971.292 545.134 1033.66 498.386C1096.03 451.638 1257.8 369.814 1339 453.893C1420.2 537.972 1442.17 608.294 1323.72 716.643C1205.27 824.993 1110.74 849.994 1041.03 861.072C971.309 872.15 932.496 1147.71 784.984 1166.21C637.472 1184.71 654.266 1116.97 531.209 1020.65Z" stroke="url(#paint21_linear_326_50)" stroke-width="1.25714"/>
<path opacity="0.714286" fill-rule="evenodd" clip-rule="evenodd" d="M537.277 1024.82C412.621 930.707 257.438 1075.13 232.901 839.963C208.364 604.792 456.81 390.82 670.027 448.081C883.244 505.341 968.651 542.088 1030.15 494.301C1091.64 446.514 1251.86 361.962 1334.47 444.567C1417.08 527.172 1440.27 597.055 1323.82 707.362C1207.37 817.668 1113.36 844.282 1043.89 856.557C974.422 868.831 940.488 1144.83 793.416 1165.87C646.343 1186.9 661.933 1118.92 537.277 1024.82Z" stroke="url(#paint22_linear_326_50)" stroke-width="1.25714"/>
<path opacity="0.7" fill-rule="evenodd" clip-rule="evenodd" d="M543.412 1028.87C417.197 936.997 264.674 1083.98 236.019 849.436C207.363 614.887 451.854 396.801 665.913 450.327C879.973 503.853 965.961 539.092 1026.57 490.282C1087.18 441.472 1245.78 354.222 1329.78 435.328C1413.78 516.435 1438.19 585.859 1323.76 698.086C1209.34 810.313 1115.87 838.53 1046.67 851.995C977.475 865.46 948.423 1141.81 801.835 1165.38C655.246 1188.94 669.627 1120.75 543.412 1028.87Z" stroke="url(#paint23_linear_326_50)" stroke-width="1.25714"/>
<path opacity="0.685714" fill-rule="evenodd" clip-rule="evenodd" d="M549.61 1032.82C421.876 943.202 272.056 1092.7 239.296 858.848C206.536 624.994 447.003 402.865 661.84 452.645C876.677 502.424 963.218 536.147 1022.92 486.33C1082.63 436.514 1239.57 346.595 1324.93 426.181C1410.3 505.766 1435.9 574.709 1323.54 688.819C1211.18 802.93 1118.28 832.739 1049.37 847.389C980.466 862.039 956.297 1138.66 810.236 1164.74C664.174 1190.81 677.345 1122.43 549.61 1032.82Z" stroke="url(#paint24_linear_326_50)" stroke-width="1.25714"/>
<path opacity="0.671429" fill-rule="evenodd" clip-rule="evenodd" d="M555.874 1036.65C426.661 949.319 279.585 1101.28 242.736 868.194C205.888 635.106 442.264 409.009 657.813 455.031C873.361 501.053 960.43 533.251 1019.21 482.444C1077.99 431.638 1233.23 339.082 1319.94 417.124C1406.64 495.165 1433.43 563.607 1323.17 679.562C1212.9 795.518 1120.59 826.908 1052 842.737C983.397 858.566 964.113 1135.37 818.622 1163.95C673.13 1192.53 685.088 1123.98 555.874 1036.65Z" stroke="url(#paint25_linear_326_50)" stroke-width="1.25714"/>
<path opacity="0.657143" fill-rule="evenodd" clip-rule="evenodd" d="M562.197 1040.37C431.545 955.346 287.253 1109.72 246.333 877.472C205.413 645.221 437.633 415.231 653.828 457.486C870.023 499.741 957.592 530.406 1015.44 478.626C1073.28 426.847 1226.77 331.686 1314.78 408.162C1402.79 484.637 1430.77 552.556 1322.63 670.319C1214.48 788.082 1122.8 821.041 1054.53 838.043C986.263 855.044 971.863 1131.94 826.984 1163.01C682.105 1194.08 692.848 1125.39 562.197 1040.37Z" stroke="url(#paint26_linear_326_50)" stroke-width="1.25714"/>
<path opacity="0.642857" fill-rule="evenodd" clip-rule="evenodd" d="M568.578 1043.97C436.529 961.285 295.061 1118.02 250.087 886.681C205.113 655.339 433.113 421.532 649.889 460.011C866.664 498.491 954.707 527.615 1011.6 474.88C1068.49 422.145 1220.19 324.412 1309.48 399.299C1398.77 474.186 1427.92 541.562 1321.93 661.094C1215.94 780.625 1124.9 815.141 1056.98 833.309C989.066 851.477 979.546 1128.39 835.323 1161.93C691.1 1195.48 700.627 1126.66 568.578 1043.97Z" stroke="url(#paint27_linear_326_50)" stroke-width="1.25714"/>
<path opacity="0.628571" fill-rule="evenodd" clip-rule="evenodd" d="M575.018 1047.46C441.614 967.131 303.009 1126.18 254 895.817C204.991 665.454 428.709 427.906 645.999 462.603C863.289 497.3 951.778 524.875 1007.7 471.202C1063.62 417.529 1213.49 317.257 1304.03 390.535C1394.57 463.812 1424.88 530.626 1321.07 651.886C1217.26 773.147 1126.9 809.208 1059.35 828.534C991.807 847.861 987.164 1124.69 843.638 1160.71C700.113 1196.72 708.422 1127.79 575.018 1047.46Z" stroke="url(#paint28_linear_326_50)" stroke-width="1.25714"/>
<path opacity="0.614286" fill-rule="evenodd" clip-rule="evenodd" d="M581.51 1050.83C446.793 972.882 311.087 1134.19 258.064 904.876C205.041 675.563 424.416 434.354 642.154 465.261C859.893 496.169 948.801 522.189 1003.74 467.596C1058.67 413.003 1206.67 310.226 1298.43 381.873C1390.19 453.521 1421.65 519.751 1320.05 642.701C1218.45 765.651 1128.79 803.243 1061.64 823.721C994.479 844.2 994.707 1120.87 851.922 1159.33C709.137 1197.8 716.228 1128.79 581.51 1050.83Z" stroke="url(#paint29_linear_326_50)" stroke-width="1.25714"/>
<path opacity="0.6" fill-rule="evenodd" clip-rule="evenodd" d="M588.058 1054.09C452.07 978.539 319.3 1142.05 262.285 913.857C205.269 685.664 420.241 440.872 638.362 467.985C856.483 495.099 945.783 519.558 999.717 464.063C1053.65 408.567 1199.73 303.321 1292.68 373.317C1385.63 443.314 1418.24 508.941 1318.88 633.54C1219.52 758.14 1130.58 797.25 1063.84 818.872C997.089 840.494 1002.18 1116.92 860.178 1157.82C718.174 1198.72 724.046 1129.64 588.058 1054.09Z" stroke="url(#paint30_linear_326_50)" stroke-width="1.25714"/>
<path opacity="0.585714" fill-rule="evenodd" clip-rule="evenodd" d="M594.656 1057.23C457.439 984.098 327.641 1149.76 266.656 922.758C205.671 695.754 416.182 447.459 634.62 470.774C853.057 494.089 942.722 516.982 995.64 460.603C1048.56 404.223 1192.68 296.542 1286.8 364.868C1380.91 433.194 1414.65 498.2 1317.55 624.408C1220.45 750.616 1132.27 791.23 1065.95 813.988C999.632 836.745 1009.58 1112.83 868.399 1156.16C727.218 1199.48 731.872 1130.36 594.656 1057.23Z" stroke="url(#paint31_linear_326_50)" stroke-width="1.25714"/>
<path opacity="0.571429" fill-rule="evenodd" clip-rule="evenodd" d="M601.301 1060.25C462.9 989.558 336.108 1157.32 271.178 931.574C206.247 705.828 412.241 454.112 630.929 473.626C849.617 493.14 939.618 514.461 991.507 457.216C1043.4 399.971 1185.52 289.892 1280.77 356.528C1376.01 423.165 1410.87 487.528 1316.06 615.304C1221.25 743.079 1133.85 785.184 1067.98 809.069C1002.11 832.954 1016.9 1108.62 876.583 1154.35C736.267 1200.08 739.703 1130.94 601.301 1060.25Z" stroke="url(#paint32_linear_326_50)" stroke-width="1.25714"/>
<path opacity="0.557143" fill-rule="evenodd" clip-rule="evenodd" d="M607.994 1063.15C468.45 994.919 344.699 1164.73 275.848 940.306C206.998 715.886 408.418 460.83 627.29 476.542C846.163 492.253 936.473 511.997 987.318 453.905C1038.16 395.814 1178.25 283.374 1274.6 348.302C1370.95 413.23 1406.91 476.932 1314.41 606.234C1221.92 735.536 1135.32 779.115 1069.92 804.119C1004.51 829.123 1024.14 1104.29 884.73 1152.4C745.319 1200.52 747.537 1131.39 607.994 1063.15Z" stroke="url(#paint33_linear_326_50)" stroke-width="1.25714"/>
<path opacity="0.542857" fill-rule="evenodd" clip-rule="evenodd" d="M614.729 1065.94C474.088 1000.18 353.409 1171.97 280.665 948.949C207.921 725.924 404.715 467.612 623.705 479.521C842.695 491.429 933.288 509.591 983.076 450.672C1032.86 391.753 1170.88 276.989 1268.3 340.191C1365.71 403.392 1402.77 466.414 1312.61 597.201C1222.45 727.987 1136.68 773.026 1071.77 799.139C1006.85 825.253 1031.3 1099.83 892.834 1150.32C754.369 1200.8 755.371 1131.69 614.729 1065.94Z" stroke="url(#paint34_linear_326_50)" stroke-width="1.25714"/>
<path opacity="0.528571" fill-rule="evenodd" clip-rule="evenodd" d="M621.508 1068.6C479.812 1005.33 362.238 1179.06 285.628 957.5C209.019 735.936 401.133 474.452 620.175 482.558C839.218 490.663 930.064 507.241 978.782 447.513C1027.5 387.785 1163.4 270.736 1261.86 332.193C1360.31 393.651 1398.45 455.974 1310.66 588.203C1222.86 720.432 1137.94 766.915 1073.53 794.128C1009.12 821.342 1038.37 1095.25 900.896 1148.08C763.417 1200.92 763.205 1131.86 621.508 1068.6Z" stroke="url(#paint35_linear_326_50)" stroke-width="1.25714"/>
<path opacity="0.514286" fill-rule="evenodd" clip-rule="evenodd" d="M628.327 1071.14C485.62 1010.39 371.182 1185.99 290.735 965.958C210.288 745.924 397.673 481.351 616.702 485.656C835.73 489.962 926.803 504.951 974.436 444.434C1022.07 383.917 1155.82 264.621 1255.28 324.317C1354.75 384.014 1393.96 445.619 1308.54 579.248C1223.13 712.876 1139.09 760.788 1075.21 789.092C1011.32 817.396 1045.36 1090.54 908.911 1145.71C772.459 1200.88 771.033 1131.89 628.327 1071.14Z" stroke="url(#paint36_linear_326_50)" stroke-width="1.25714"/>
<path opacity="0.5" fill-rule="evenodd" clip-rule="evenodd" d="M635.184 1073.56C491.512 1015.33 380.238 1192.76 295.985 974.322C211.731 755.883 394.336 488.307 613.285 488.815C832.234 489.322 923.506 502.72 970.042 441.434C1016.58 380.147 1148.14 258.644 1248.58 316.563C1349.03 374.482 1389.29 435.352 1306.28 570.337C1223.28 705.322 1140.14 754.645 1076.79 784.03C1013.45 813.414 1052.27 1085.72 916.879 1143.2C781.492 1200.69 778.856 1131.78 635.184 1073.56Z" stroke="url(#paint37_linear_326_50)" stroke-width="1.25714"/>
<path opacity="0.485714" fill-rule="evenodd" clip-rule="evenodd" d="M642.076 1075.85C497.483 1020.17 389.404 1199.36 301.374 982.583C213.345 765.806 391.123 495.313 609.927 492.027C828.73 488.741 920.172 500.545 965.6 438.509C1011.03 376.473 1140.36 252.803 1241.75 308.928C1343.14 365.053 1384.44 425.17 1303.87 561.469C1223.29 697.767 1141.07 748.485 1078.29 778.94C1015.51 809.395 1059.08 1080.78 924.795 1140.55C790.513 1200.33 786.669 1131.53 642.076 1075.85Z" stroke="url(#paint38_linear_326_50)" stroke-width="1.25714"/>
<path opacity="0.471429" fill-rule="evenodd" clip-rule="evenodd" d="M649 1078.03C503.531 1024.9 398.673 1205.8 306.9 990.749C215.127 775.697 388.033 502.375 606.625 495.301C825.217 488.226 916.802 498.435 961.109 435.669C1005.42 372.904 1132.49 247.107 1234.79 301.423C1337.1 355.74 1379.42 415.085 1301.3 552.653C1223.17 690.222 1141.9 742.317 1079.7 773.832C1017.49 805.346 1065.79 1075.72 932.656 1137.77C799.518 1199.82 794.469 1131.15 649 1078.03Z" stroke="url(#paint39_linear_326_50)" stroke-width="1.25714"/>
<path opacity="0.457143" fill-rule="evenodd" clip-rule="evenodd" d="M655.958 1080.07C509.658 1029.52 408.048 1212.07 312.565 998.808C217.082 785.548 385.07 509.484 603.386 498.627C821.701 487.771 913.402 496.382 956.576 432.907C999.751 369.432 1124.52 241.551 1227.71 294.043C1330.9 346.535 1374.24 405.091 1298.58 543.886C1222.92 682.68 1142.62 736.136 1081.02 768.699C1019.41 801.262 1072.42 1070.55 940.465 1134.85C808.508 1199.14 802.257 1130.63 655.958 1080.07Z" stroke="url(#paint40_linear_326_50)" stroke-width="1.25714"/>
<path opacity="0.442857" fill-rule="evenodd" clip-rule="evenodd" d="M662.943 1082C515.858 1034.03 417.521 1218.17 318.362 1006.76C219.204 795.358 382.232 516.641 600.205 502.01C818.179 487.379 909.966 494.392 951.997 430.228C994.028 366.064 1116.47 236.139 1220.51 286.794C1324.54 337.448 1368.88 395.198 1295.71 535.174C1222.54 675.15 1143.24 729.948 1082.24 763.549C1021.25 797.15 1078.95 1065.27 948.213 1131.79C817.476 1198.31 810.028 1129.97 662.943 1082Z" stroke="url(#paint41_linear_326_50)" stroke-width="1.25714"/>
<path opacity="0.428571" fill-rule="evenodd" clip-rule="evenodd" d="M669.958 1083.8C522.133 1038.43 427.094 1224.1 324.296 1014.61C221.498 805.125 379.524 523.842 597.09 505.445C814.656 487.048 906.503 492.464 947.38 427.631C988.256 362.798 1108.33 230.872 1213.19 279.675C1318.04 328.478 1363.36 385.405 1292.69 526.518C1222.03 667.631 1143.74 723.752 1083.38 758.379C1023.02 793.007 1085.38 1059.87 955.904 1128.6C826.425 1197.33 817.783 1129.18 669.958 1083.8Z" stroke="url(#paint42_linear_326_50)" stroke-width="1.25714"/>
<path opacity="0.414286" fill-rule="evenodd" clip-rule="evenodd" d="M676.993 1085.48C528.475 1042.72 436.757 1229.86 330.356 1022.35C223.955 814.845 376.939 531.087 594.032 508.934C811.126 486.781 903.005 490.598 942.716 425.118C982.428 359.637 1100.11 225.753 1205.75 272.691C1311.38 319.629 1357.67 375.717 1289.53 517.922C1221.39 660.128 1144.14 717.554 1084.42 753.195C1024.71 788.836 1091.71 1054.37 963.528 1125.28C835.343 1196.18 825.512 1128.25 676.993 1085.48Z" stroke="url(#paint43_linear_326_50)" stroke-width="1.25714"/>
<path opacity="0.4" fill-rule="evenodd" clip-rule="evenodd" d="M684.055 1087.04C534.888 1046.89 446.515 1235.44 336.548 1029.98C226.581 824.515 374.486 538.372 591.042 512.474C807.598 486.575 899.482 488.795 938.018 422.688C976.553 356.581 1091.81 220.782 1198.19 265.843C1304.58 310.904 1351.82 366.135 1286.22 509.388C1220.62 652.641 1144.43 711.352 1085.38 747.996C1026.33 784.639 1097.95 1048.76 971.091 1121.82C844.237 1194.89 833.221 1127.19 684.055 1087.04Z" stroke="url(#paint44_linear_326_50)" stroke-width="1.25714"/>
<path opacity="0.385714" fill-rule="evenodd" clip-rule="evenodd" d="M691.134 1088.46C541.366 1050.94 456.358 1240.85 342.865 1037.49C229.372 834.132 372.16 545.694 588.114 516.063C804.069 486.431 895.928 487.054 933.279 420.341C970.63 353.628 1083.42 215.959 1190.53 259.131C1297.63 302.302 1345.81 356.661 1282.76 500.916C1219.72 645.171 1144.61 705.149 1086.24 742.782C1027.88 780.415 1104.07 1043.04 978.585 1118.23C853.098 1193.43 840.903 1125.99 691.134 1088.46Z" stroke="url(#paint45_linear_326_50)" stroke-width="1.25714"/>
<path opacity="0.371429" fill-rule="evenodd" clip-rule="evenodd" d="M698.233 1089.77C547.908 1054.88 466.286 1246.08 349.307 1044.89C232.327 843.693 369.964 553.053 585.252 519.701C800.541 486.349 892.348 485.378 928.505 418.08C964.661 350.782 1074.97 211.287 1182.76 252.558C1290.54 293.829 1339.64 347.3 1279.16 492.512C1218.69 637.723 1144.68 698.947 1087.02 737.557C1029.35 776.168 1110.09 1037.22 986.009 1114.52C861.925 1191.82 848.557 1124.65 698.233 1089.77Z" stroke="url(#paint46_linear_326_50)" stroke-width="1.25714"/>
<path opacity="0.357143" fill-rule="evenodd" clip-rule="evenodd" d="M705.347 1090.94C554.513 1058.7 476.296 1251.14 355.871 1052.17C235.446 853.194 367.897 560.443 582.456 523.385C797.014 486.327 888.743 483.763 923.696 415.902C958.649 348.041 1066.44 206.764 1174.87 246.124C1283.31 285.485 1333.31 338.051 1275.42 484.174C1217.53 630.296 1144.65 692.746 1087.7 732.321C1030.75 771.895 1116.01 1031.29 993.362 1110.68C870.716 1190.06 856.18 1123.19 705.347 1090.94Z" stroke="url(#paint47_linear_326_50)" stroke-width="1.25714"/>
<path opacity="0.342857" fill-rule="evenodd" clip-rule="evenodd" d="M712.476 1092C561.179 1062.4 486.385 1256.02 362.556 1059.33C238.728 862.638 365.963 567.868 579.727 527.12C793.492 486.371 885.114 482.216 918.855 413.813C952.595 345.41 1057.84 202.397 1166.89 239.837C1275.94 277.276 1326.83 328.924 1271.54 475.911C1216.25 622.898 1144.51 686.554 1088.29 727.079C1032.07 767.605 1121.81 1025.27 1000.64 1106.71C879.47 1188.14 863.772 1121.59 712.476 1092Z" stroke="url(#paint48_linear_326_50)" stroke-width="1.25714"/>
<path opacity="0.328571" fill-rule="evenodd" clip-rule="evenodd" d="M719.614 1092.92C567.901 1065.99 496.547 1260.71 369.358 1066.36C242.169 872.016 364.157 575.321 577.064 530.898C789.972 486.475 881.459 480.732 913.98 411.809C946.5 342.886 1049.17 198.183 1158.8 233.692C1268.44 269.2 1320.19 319.914 1267.51 467.72C1214.83 615.525 1144.25 680.366 1088.78 721.829C1033.31 763.292 1127.51 1019.15 1007.84 1102.61C888.179 1186.08 871.327 1119.86 719.614 1092.92Z" stroke="url(#paint49_linear_326_50)" stroke-width="1.25714"/>
<path opacity="0.314286" fill-rule="evenodd" clip-rule="evenodd" d="M726.764 1093.72C574.681 1069.45 506.783 1265.22 376.278 1073.28C245.772 881.327 362.485 582.799 574.472 534.719C786.459 486.639 877.785 479.312 909.077 409.891C940.369 340.47 1040.43 194.123 1150.62 227.691C1260.8 261.26 1313.41 311.026 1263.35 459.604C1213.29 608.182 1143.9 674.186 1089.19 716.573C1034.48 758.96 1133.09 1012.93 1014.97 1098.4C896.846 1183.86 878.846 1118 726.764 1093.72Z" stroke="url(#paint50_linear_326_50)" stroke-width="1.25714"/>
<path opacity="0.3" fill-rule="evenodd" clip-rule="evenodd" d="M733.919 1094.4C581.514 1072.79 517.087 1269.56 383.31 1080.06C249.533 890.569 360.944 590.302 571.948 538.584C782.952 486.866 874.088 477.958 904.144 408.061C934.201 338.163 1031.64 190.219 1142.33 221.84C1253.03 253.461 1306.47 302.264 1259.05 451.567C1211.63 600.871 1143.43 668.018 1089.5 711.314C1035.57 754.611 1138.56 1006.62 1022.01 1094.06C905.466 1181.49 886.325 1116 733.919 1094.4Z" stroke="url(#paint51_linear_326_50)" stroke-width="1.25714"/>
<path opacity="0.285714" fill-rule="evenodd" clip-rule="evenodd" d="M741.079 1094.95C588.397 1076.01 527.455 1273.71 390.453 1086.72C253.45 899.739 359.534 597.828 569.492 542.491C779.45 487.155 870.37 476.671 899.184 406.319C927.997 335.967 1022.78 186.472 1133.96 216.138C1245.14 245.803 1299.39 293.629 1254.61 443.612C1209.83 593.595 1142.86 661.862 1089.72 706.054C1036.59 750.247 1143.92 1000.22 1028.98 1089.6C914.034 1178.97 893.761 1113.88 741.079 1094.95Z" stroke="url(#paint52_linear_326_50)" stroke-width="1.25714"/>
<path opacity="0.271429" fill-rule="evenodd" clip-rule="evenodd" d="M748.242 1095.37C595.33 1079.11 537.887 1277.67 397.705 1093.25C257.524 908.834 358.257 605.372 567.108 546.437C775.959 487.503 866.634 475.448 894.199 404.664C921.763 333.879 1013.87 182.882 1125.49 210.585C1237.11 238.287 1292.17 285.123 1250.04 435.738C1207.92 586.353 1142.18 655.719 1089.85 700.792C1037.52 745.866 1149.16 993.732 1035.85 1085.02C922.551 1176.3 901.153 1111.63 748.242 1095.37Z" stroke="url(#paint53_linear_326_50)" stroke-width="1.25714"/>
<path opacity="0.257143" fill-rule="evenodd" clip-rule="evenodd" d="M755.404 1095.67C602.31 1082.08 548.376 1281.45 405.064 1099.65C261.751 917.852 357.112 612.934 564.794 550.424C772.475 487.914 862.88 474.293 889.188 403.098C915.497 331.903 1004.9 179.451 1116.93 205.185C1228.97 230.918 1284.81 276.75 1245.34 427.951C1205.87 579.152 1141.4 649.593 1089.89 695.532C1038.38 741.472 1154.28 987.154 1042.64 1080.32C931.013 1173.49 908.498 1109.25 755.404 1095.67Z" stroke="url(#paint54_linear_326_50)" stroke-width="1.25714"/>
<path opacity="0.242857" fill-rule="evenodd" clip-rule="evenodd" d="M762.567 1095.84C609.336 1084.93 558.923 1285.04 412.528 1105.92C266.133 926.79 356.102 620.512 562.553 554.448C769.005 488.385 859.111 473.204 884.158 401.621C909.204 330.038 995.885 176.18 1108.29 199.938C1220.7 223.696 1277.31 268.512 1240.51 420.251C1203.71 571.99 1140.51 643.485 1089.84 690.276C1039.17 737.067 1159.28 980.49 1049.35 1075.51C939.419 1170.53 915.797 1106.75 762.567 1095.84Z" stroke="url(#paint55_linear_326_50)" stroke-width="1.25714"/>
<path opacity="0.228571" fill-rule="evenodd" clip-rule="evenodd" d="M769.723 1095.88C616.404 1087.66 569.52 1288.45 420.093 1112.05C270.665 935.644 355.223 628.101 560.383 558.508C765.544 488.915 855.326 472.181 879.105 400.232C902.884 328.283 986.819 173.067 1099.57 194.845C1212.32 216.623 1269.67 260.409 1235.55 412.64C1201.42 564.871 1139.51 637.395 1089.69 685.022C1039.87 732.649 1164.16 973.743 1055.96 1070.58C947.764 1167.42 923.043 1104.11 769.723 1095.88Z" stroke="url(#paint56_linear_326_50)" stroke-width="1.25714"/>
<path opacity="0.214286" fill-rule="evenodd" clip-rule="evenodd" d="M776.873 1095.81C623.512 1090.26 580.166 1291.67 427.756 1118.04C275.347 944.415 354.477 635.701 558.286 562.604C762.095 489.507 851.525 471.225 874.032 398.933C896.539 326.641 977.707 170.116 1090.76 189.909C1203.82 209.702 1261.89 252.446 1230.45 405.121C1199.01 557.796 1138.41 631.328 1089.45 679.776C1040.5 728.224 1168.91 966.915 1062.48 1065.54C956.045 1164.17 930.235 1101.36 776.873 1095.81Z" stroke="url(#paint57_linear_326_50)" stroke-width="1.25714"/>
<path opacity="0.2" fill-rule="evenodd" clip-rule="evenodd" d="M784.018 1095.6C630.661 1092.73 590.861 1294.7 435.52 1123.9C280.18 953.098 353.867 643.31 556.265 566.734C758.663 490.159 847.715 470.337 868.945 397.724C890.175 325.111 968.556 167.327 1081.88 185.131C1195.21 202.935 1253.99 244.625 1225.24 397.697C1196.48 550.77 1137.2 625.284 1089.13 674.537C1041.05 723.79 1173.55 960.01 1068.91 1060.39C964.265 1160.78 937.375 1098.48 784.018 1095.6Z" stroke="url(#paint58_linear_326_50)" stroke-width="1.25714"/>
<path opacity="0.185714" fill-rule="evenodd" clip-rule="evenodd" d="M791.151 1095.27C637.845 1095.08 601.596 1297.54 443.377 1129.61C285.158 961.689 353.389 650.923 554.317 570.895C755.245 490.868 843.892 469.514 863.84 396.603C883.788 323.692 959.364 164.697 1072.92 180.509C1186.49 196.32 1245.96 236.945 1219.9 390.367C1193.83 543.79 1135.89 619.264 1088.71 669.306C1041.53 719.348 1178.05 953.025 1075.24 1055.13C972.416 1157.24 944.457 1095.47 791.151 1095.27Z" stroke="url(#paint59_linear_326_50)" stroke-width="1.25714"/>
<path opacity="0.171429" fill-rule="evenodd" clip-rule="evenodd" d="M798.27 1094.82C645.063 1097.3 612.37 1300.19 451.325 1135.19C290.281 970.19 353.045 658.541 552.443 575.091C751.842 491.64 840.057 468.762 858.72 395.575C877.383 322.388 950.134 162.233 1063.9 176.049C1177.66 189.866 1237.8 229.413 1214.43 383.138C1191.06 536.864 1134.48 613.273 1088.2 664.088C1041.92 714.904 1182.44 945.97 1081.47 1049.77C980.498 1153.57 951.478 1092.35 798.27 1094.82Z" stroke="url(#paint60_linear_326_50)" stroke-width="1.25714"/>
<path opacity="0.157143" fill-rule="evenodd" clip-rule="evenodd" d="M805.373 1094.24C652.31 1099.39 623.178 1302.65 459.362 1140.62C295.545 978.593 352.831 666.159 550.642 579.313C748.453 492.468 836.212 468.074 853.586 394.634C870.96 321.195 940.869 159.929 1054.8 171.748C1168.72 183.567 1229.52 222.026 1208.85 376.007C1188.18 529.988 1132.96 607.309 1087.6 658.881C1042.23 710.453 1186.69 938.84 1087.6 1044.3C988.505 1149.76 958.437 1089.1 805.373 1094.24Z" stroke="url(#paint61_linear_326_50)" stroke-width="1.25714"/>
<path opacity="0.142857" fill-rule="evenodd" clip-rule="evenodd" d="M812.462 1093.54C659.589 1101.35 634.022 1304.92 467.488 1145.91C300.954 986.9 352.754 673.775 548.92 583.565C745.086 493.356 832.361 467.455 848.443 393.785C864.525 320.114 931.576 157.789 1045.63 167.609C1159.69 177.429 1221.12 214.79 1203.15 368.979C1185.17 523.168 1131.34 601.375 1086.91 653.688C1042.47 706 1190.82 931.642 1093.63 1038.72C996.44 1145.81 965.335 1085.73 812.462 1093.54Z" stroke="url(#paint62_linear_326_50)" stroke-width="1.25714"/>
<path opacity="0.128571" fill-rule="evenodd" clip-rule="evenodd" d="M819.529 1092.72C666.894 1103.19 644.892 1307 475.696 1151.05C306.501 995.108 352.808 681.389 547.272 587.846C741.736 494.302 828.501 466.905 843.288 393.027C858.075 319.149 922.252 155.814 1036.41 163.634C1150.56 171.454 1212.6 207.706 1197.32 362.056C1182.05 516.406 1129.62 595.475 1086.13 648.511C1042.63 701.547 1194.81 924.377 1099.55 1033.05C1004.3 1141.72 972.165 1082.25 819.529 1092.72Z" stroke="url(#paint63_linear_326_50)" stroke-width="1.25714"/>
<path opacity="0.114286" fill-rule="evenodd" clip-rule="evenodd" d="M826.576 1091.77C674.224 1104.89 655.788 1308.89 483.987 1156.05C312.186 1003.21 352.996 688.995 545.7 592.15C738.405 495.305 824.636 466.42 838.126 392.357C851.616 318.294 912.904 154.001 1027.12 159.821C1141.33 165.641 1203.96 200.774 1191.39 355.238C1178.81 509.701 1127.79 589.607 1085.25 643.35C1042.72 697.092 1198.68 917.045 1105.38 1027.27C1012.08 1137.5 978.928 1078.65 826.576 1091.77Z" stroke="url(#paint64_linear_326_50)" stroke-width="1.25714"/>
<path opacity="0.1" fill-rule="evenodd" clip-rule="evenodd" d="M833.599 1090.7C681.576 1106.47 666.706 1310.59 492.356 1160.9C318.007 1011.21 353.316 696.595 544.206 596.481C735.096 496.367 820.766 466.005 832.957 391.779C845.148 317.554 903.533 152.354 1017.77 156.173C1132.01 159.993 1195.21 193.998 1185.34 348.528C1175.46 503.059 1125.87 583.776 1084.29 638.208C1042.72 692.64 1202.41 909.652 1111.09 1021.4C1019.77 1133.15 985.621 1074.93 833.599 1090.7Z" stroke="url(#paint65_linear_326_50)" stroke-width="1.25714"/>
<path opacity="0.0857143" fill-rule="evenodd" clip-rule="evenodd" d="M840.596 1089.51C688.949 1107.92 677.644 1312.09 500.803 1165.6C323.962 1019.11 353.769 704.184 542.789 600.835C731.808 497.486 816.893 465.657 827.783 391.293C838.673 316.928 894.143 150.872 1008.37 152.692C1122.61 154.513 1186.35 187.38 1179.18 341.93C1172 496.479 1123.84 577.983 1083.25 633.088C1042.65 688.192 1206.01 902.199 1116.7 1015.43C1027.38 1128.66 992.243 1071.1 840.596 1089.51Z" stroke="url(#paint66_linear_326_50)" stroke-width="1.25714"/>
<path opacity="0.0714286" fill-rule="evenodd" clip-rule="evenodd" d="M847.567 1088.2C696.342 1109.24 688.598 1313.41 509.325 1170.15C330.051 1026.89 354.356 711.759 541.451 605.209C728.545 498.66 813.02 465.377 822.608 390.895C832.196 316.414 884.738 149.553 998.925 149.376C1113.11 149.199 1177.39 180.92 1172.91 335.442C1168.43 489.964 1121.72 572.228 1082.11 627.987C1042.5 683.746 1209.47 894.688 1122.19 1009.37C1034.91 1124.05 998.793 1067.16 847.567 1088.2Z" stroke="url(#paint67_linear_326_50)" stroke-width="1.25714"/>
<path opacity="0.0571429" fill-rule="evenodd" clip-rule="evenodd" d="M854.506 1086.77C703.748 1110.43 699.563 1314.53 517.916 1174.55C336.268 1034.56 355.072 719.319 540.188 609.605C725.304 499.891 809.142 465.164 817.428 390.589C825.713 316.014 875.316 148.4 989.424 146.227C1103.53 144.054 1168.32 174.621 1166.53 329.068C1164.74 483.515 1119.5 566.515 1080.88 622.911C1042.27 679.307 1212.8 887.122 1127.58 1003.21C1042.35 1119.31 1005.26 1063.11 854.506 1086.77Z" stroke="url(#paint68_linear_326_50)" stroke-width="1.25714"/>
<path opacity="0.0428571" fill-rule="evenodd" clip-rule="evenodd" d="M861.415 1085.22C711.169 1111.49 710.538 1315.46 526.576 1178.79C342.615 1042.12 355.922 726.861 539.005 614.02C722.089 501.178 805.267 465.019 812.25 390.373C819.232 315.727 865.886 147.411 979.88 143.246C1093.87 139.08 1159.15 168.483 1160.05 322.809C1160.95 477.135 1117.18 560.844 1079.57 617.859C1041.96 674.875 1216 879.502 1132.85 996.97C1049.7 1114.44 1011.66 1058.94 861.415 1085.22Z" stroke="url(#paint69_linear_326_50)" stroke-width="1.25714"/>
<path opacity="0.0285714" fill-rule="evenodd" clip-rule="evenodd" d="M868.284 1083.54C718.634 1112.41 721.557 1316.19 535.383 1182.87C349.209 1049.55 357.01 734.367 537.959 618.442C718.908 502.518 801.38 464.944 807.055 390.25C812.73 315.556 856.408 146.593 970.225 140.442C1084.04 134.292 1149.77 162.527 1153.36 316.684C1156.94 470.841 1114.67 555.23 1078.09 612.845C1041.51 670.46 1218.96 871.847 1137.93 990.649C1056.91 1109.45 1017.93 1054.67 868.284 1083.54Z" stroke="url(#paint70_linear_326_50)" stroke-width="1.25714"/>
<path opacity="0.0142857" fill-rule="evenodd" clip-rule="evenodd" d="M875.145 1081.85C726.044 1113.32 732.507 1316.9 544.075 1186.94C355.644 1056.97 357.966 741.887 536.843 622.878C715.721 503.868 797.514 464.877 801.89 390.139C806.266 315.4 846.994 145.796 960.668 137.656C1074.34 129.516 1140.54 156.579 1146.8 310.56C1153.07 464.541 1112.28 549.609 1076.71 607.823C1041.14 666.036 1222.03 864.167 1143.09 984.302C1064.16 1104.44 1024.25 1050.38 875.145 1081.85Z" stroke="url(#paint71_linear_326_50)" stroke-width="1.25714"/>
</g>
<g filter="url(#filter1_bf_326_50)">
<path d="M980.285 1125.33L1231.36 1293.09L1149.24 1375.22L898.16 1207.45L980.285 1125.33Z" fill="white" fill-opacity="0.01"/>
</g>
<path d="M1205.73 1094.35C1109.74 875.817 791.356 957.6 776.596 1116.79C766.894 1221.44 813.108 1283.11 938.571 1285.86C1041.06 1288.11 1025.76 1351.64 1067.19 1388.07C1140.07 1452.15 1200.04 1414.83 1317.12 1492.54C1434.2 1570.25 1553.59 1466.85 1583.72 1376.78C1613.85 1286.72 1536.08 1199.8 1455.15 1182.88C1296.56 1149.74 1270.84 1242.58 1205.73 1094.35Z" fill="url(#paint72_linear_326_50)"/>
<path d="M947.083 1251.33C756.751 1216.43 805.488 1031.77 945.882 1002.93C1005.62 990.659 1078.55 982.651 1102.65 1057.58C1122.33 1118.78 1186.94 1095.46 1221.92 1129.25C1251.9 1158.21 1305.82 1176.56 1319.23 1213.33C1347.26 1290.18 1387.52 1320.64 1255.71 1373.49C1235.41 1381.63 1204.96 1434.66 1132.13 1407.83C1045.14 1375.78 1091.4 1271.79 947.083 1251.33Z" fill="url(#paint73_linear_326_50)"/>
<g filter="url(#filter2_f_326_50)">
<path d="M1240.1 1152.38C1371.67 1134.44 1444.37 1189.92 1557.43 1343.7C1652.91 1473.56 1644.51 1553.33 1566.1 1662.42C1505.41 1746.85 1429.6 1776.14 1318.11 1809.29C1003.54 1902.81 888.988 1428.84 629.689 1423.7C625.484 1423.61 623.381 1423.57 621.651 1423.37C619.921 1423.17 618.726 1422.91 616.337 1422.4C498.465 1396.96 504.664 1255.11 562.256 1126.44C620.895 995.435 869.673 908.61 999.495 970.9C1129.32 1033.19 901.443 1198.53 1240.1 1152.38Z" fill="url(#paint74_angular_326_50)"/>
</g>
<path d="M899.035 1493.83C540.914 1428.08 646.262 1048.07 910.379 993.895C1022.77 970.841 1159.96 955.815 1205.36 1096.78C1242.45 1211.92 1363.98 1168.09 1429.81 1231.66C1486.25 1286.16 1587.7 1320.71 1612.96 1389.87C1665.77 1534.47 1741.54 1591.79 1493.58 1691.14C1455.41 1706.44 1370.26 1833.66 1233.22 1783.14C1069.52 1722.81 1170.57 1532.39 899.035 1493.83Z" fill="url(#paint75_angular_326_50)" fill-opacity="0.3"/>
<path d="M1177.46 1193.92C1049.09 901.69 623.333 1011.06 603.595 1223.94C590.621 1363.87 652.421 1446.35 820.198 1450.03C957.247 1453.03 936.797 1538 992.2 1586.71C1089.66 1672.39 1169.85 1622.5 1326.42 1726.41C1482.99 1830.33 1642.65 1692.05 1682.93 1571.61C1723.22 1451.17 1656.02 1331.21 1547.78 1308.58C1335.72 1264.25 1264.53 1392.14 1177.46 1193.92Z" fill="url(#paint76_angular_326_50)" fill-opacity="0.3"/>
<path d="M1106.97 1071.41C1048.42 1046.05 865.698 955.79 732.06 1144.69C650.35 1260.19 661.633 1415.3 822.358 1486.72C953.647 1545.06 900.226 1642.22 934.487 1724.67C994.754 1869.72 1045.61 1930.93 1153.69 1928.18C1234.1 1926.14 1353.07 1831.52 1439.72 1698.3C1526.37 1565.07 1418.85 1532.93 1390.17 1420.3C1346.06 1247.1 1317.15 1162.48 1106.97 1071.41Z" fill="url(#paint77_linear_326_50)"/>
<defs>
<filter id="filter0_bf_326_50" x="190.499" y="996.003" width="510" height="270" filterUnits="userSpaceOnUse" color-interpolation-filters="sRGB">
<feFlood flood-opacity="0" result="BackgroundImageFix"/>
<feGaussianBlur in="BackgroundImageFix" stdDeviation="20"/>
<feComposite in2="SourceAlpha" operator="in" result="effect1_backgroundBlur_326_50"/>
<feBlend mode="normal" in="SourceGraphic" in2="effect1_backgroundBlur_326_50" result="shape"/>
<feGaussianBlur stdDeviation="30" result="effect2_foregroundBlur_326_50"/>
</filter>
<filter id="filter1_bf_326_50" x="851.703" y="1078.87" width="426.115" height="342.802" filterUnits="userSpaceOnUse" color-interpolation-filters="sRGB">
<feFlood flood-opacity="0" result="BackgroundImageFix"/>
<feGaussianBlur in="BackgroundImageFix" stdDeviation="15.4856"/>
<feComposite in2="SourceAlpha" operator="in" result="effect1_backgroundBlur_326_50"/>
<feBlend mode="normal" in="SourceGraphic" in2="effect1_backgroundBlur_326_50" result="shape"/>
<feGaussianBlur stdDeviation="23.2283" result="effect2_foregroundBlur_326_50"/>
</filter>
<filter id="filter2_f_326_50" x="382.044" y="810.101" width="1385.13" height="1151.61" filterUnits="userSpaceOnUse" color-interpolation-filters="sRGB">
<feFlood flood-opacity="0" result="BackgroundImageFix"/>
<feBlend mode="normal" in="SourceGraphic" in2="BackgroundImageFix" result="shape"/>
<feGaussianBlur stdDeviation="70.1018" result="effect1_foregroundBlur_326_50"/>
</filter>
<linearGradient id="paint0_linear_326_50" x1="673.003" y1="764.635" x2="349.924" y2="1227.47" gradientUnits="userSpaceOnUse">
<stop stop-color="#FF7777"/>
<stop offset="1" stop-color="#EF234C"/>
</linearGradient>
<linearGradient id="paint1_linear_326_50" x1="503.789" y1="1251.91" x2="270.712" y2="939.662" gradientUnits="userSpaceOnUse">
<stop stop-color="#FF7777"/>
<stop offset="1" stop-color="#EF234C"/>
</linearGradient>
<linearGradient id="paint2_linear_326_50" x1="98.9004" y1="591.239" x2="549.339" y2="1340.89" gradientUnits="userSpaceOnUse">
<stop stop-color="#9EE1EC"/>
<stop offset="1" stop-color="#E5A7E0"/>
</linearGradient>
<linearGradient id="paint3_linear_326_50" x1="97.8125" y1="603.238" x2="561.037" y2="1344.55" gradientUnits="userSpaceOnUse">
<stop stop-color="#9EE1EC"/>
<stop offset="1" stop-color="#E5A7E0"/>
</linearGradient>
<linearGradient id="paint4_linear_326_50" x1="96.9336" y1="615.247" x2="572.79" y2="1348" gradientUnits="userSpaceOnUse">
<stop stop-color="#9EE1EC"/>
<stop offset="1" stop-color="#E5A7E0"/>
</linearGradient>
<linearGradient id="paint5_linear_326_50" x1="96.2627" y1="627.261" x2="584.593" y2="1351.24" gradientUnits="userSpaceOnUse">
<stop stop-color="#9EE1EC"/>
<stop offset="1" stop-color="#E5A7E0"/>
</linearGradient>
<linearGradient id="paint6_linear_326_50" x1="95.8008" y1="639.277" x2="596.444" y2="1354.27" gradientUnits="userSpaceOnUse">
<stop stop-color="#9EE1EC"/>
<stop offset="1" stop-color="#E5A7E0"/>
</linearGradient>
<linearGradient id="paint7_linear_326_50" x1="95.5469" y1="651.292" x2="608.339" y2="1357.09" gradientUnits="userSpaceOnUse">
<stop stop-color="#9EE1EC"/>
<stop offset="1" stop-color="#E5A7E0"/>
</linearGradient>
<linearGradient id="paint8_linear_326_50" x1="95.502" y1="663.3" x2="620.273" y2="1359.7" gradientUnits="userSpaceOnUse">
<stop stop-color="#9EE1EC"/>
<stop offset="1" stop-color="#E5A7E0"/>
</linearGradient>
<linearGradient id="paint9_linear_326_50" x1="95.6641" y1="675.299" x2="632.244" y2="1362.09" gradientUnits="userSpaceOnUse">
<stop stop-color="#9EE1EC"/>
<stop offset="1" stop-color="#E5A7E0"/>
</linearGradient>
<linearGradient id="paint10_linear_326_50" x1="96.0352" y1="687.285" x2="644.247" y2="1364.27" gradientUnits="userSpaceOnUse">
<stop stop-color="#9EE1EC"/>
<stop offset="1" stop-color="#E5A7E0"/>
</linearGradient>
<linearGradient id="paint11_linear_326_50" x1="96.6113" y1="699.253" x2="656.277" y2="1366.24" gradientUnits="userSpaceOnUse">
<stop stop-color="#9EE1EC"/>
<stop offset="1" stop-color="#E5A7E0"/>
</linearGradient>
<linearGradient id="paint12_linear_326_50" x1="97.3965" y1="711.203" x2="668.334" y2="1367.99" gradientUnits="userSpaceOnUse">
<stop stop-color="#9EE1EC"/>
<stop offset="1" stop-color="#E5A7E0"/>
</linearGradient>
<linearGradient id="paint13_linear_326_50" x1="98.3867" y1="723.127" x2="680.411" y2="1369.53" gradientUnits="userSpaceOnUse">
<stop stop-color="#9EE1EC"/>
<stop offset="1" stop-color="#E5A7E0"/>
</linearGradient>
<linearGradient id="paint14_linear_326_50" x1="99.583" y1="735.028" x2="692.505" y2="1370.86" gradientUnits="userSpaceOnUse">
<stop stop-color="#9EE1EC"/>
<stop offset="1" stop-color="#E5A7E0"/>
</linearGradient>
<linearGradient id="paint15_linear_326_50" x1="100.984" y1="746.894" x2="704.613" y2="1371.97" gradientUnits="userSpaceOnUse">
<stop stop-color="#9EE1EC"/>
<stop offset="1" stop-color="#E5A7E0"/>
</linearGradient>
<linearGradient id="paint16_linear_326_50" x1="102.589" y1="758.729" x2="716.729" y2="1372.87" gradientUnits="userSpaceOnUse">
<stop stop-color="#9EE1EC"/>
<stop offset="1" stop-color="#E5A7E0"/>
</linearGradient>
<linearGradient id="paint17_linear_326_50" x1="104.398" y1="770.524" x2="728.853" y2="1373.55" gradientUnits="userSpaceOnUse">
<stop stop-color="#9EE1EC"/>
<stop offset="1" stop-color="#E5A7E0"/>
</linearGradient>
<linearGradient id="paint18_linear_326_50" x1="106.41" y1="782.278" x2="740.978" y2="1374.02" gradientUnits="userSpaceOnUse">
<stop stop-color="#9EE1EC"/>
<stop offset="1" stop-color="#E5A7E0"/>
</linearGradient>
<linearGradient id="paint19_linear_326_50" x1="108.623" y1="793.987" x2="753.101" y2="1374.28" gradientUnits="userSpaceOnUse">
<stop stop-color="#9EE1EC"/>
<stop offset="1" stop-color="#E5A7E0"/>
</linearGradient>
<linearGradient id="paint20_linear_326_50" x1="111.037" y1="805.648" x2="765.218" y2="1374.32" gradientUnits="userSpaceOnUse">
<stop stop-color="#9EE1EC"/>
<stop offset="1" stop-color="#E5A7E0"/>
</linearGradient>
<linearGradient id="paint21_linear_326_50" x1="113.652" y1="817.258" x2="777.327" y2="1374.15" gradientUnits="userSpaceOnUse">
<stop stop-color="#9EE1EC"/>
<stop offset="1" stop-color="#E5A7E0"/>
</linearGradient>
<linearGradient id="paint22_linear_326_50" x1="116.466" y1="828.811" x2="789.423" y2="1373.76" gradientUnits="userSpaceOnUse">
<stop stop-color="#9EE1EC"/>
<stop offset="1" stop-color="#E5A7E0"/>
</linearGradient>
<linearGradient id="paint23_linear_326_50" x1="119.478" y1="840.307" x2="801.503" y2="1373.16" gradientUnits="userSpaceOnUse">
<stop stop-color="#9EE1EC"/>
<stop offset="1" stop-color="#E5A7E0"/>
</linearGradient>
<linearGradient id="paint24_linear_326_50" x1="122.684" y1="851.742" x2="813.559" y2="1372.35" gradientUnits="userSpaceOnUse">
<stop stop-color="#9EE1EC"/>
<stop offset="1" stop-color="#E5A7E0"/>
</linearGradient>
<linearGradient id="paint25_linear_326_50" x1="126.088" y1="863.11" x2="825.595" y2="1371.33" gradientUnits="userSpaceOnUse">
<stop stop-color="#9EE1EC"/>
<stop offset="1" stop-color="#E5A7E0"/>
</linearGradient>
<linearGradient id="paint26_linear_326_50" x1="129.684" y1="874.41" x2="837.6" y2="1370.1" gradientUnits="userSpaceOnUse">
<stop stop-color="#9EE1EC"/>
<stop offset="1" stop-color="#E5A7E0"/>
</linearGradient>
<linearGradient id="paint27_linear_326_50" x1="133.472" y1="885.639" x2="849.573" y2="1368.66" gradientUnits="userSpaceOnUse">
<stop stop-color="#9EE1EC"/>
<stop offset="1" stop-color="#E5A7E0"/>
</linearGradient>
<linearGradient id="paint28_linear_326_50" x1="137.453" y1="896.792" x2="861.513" y2="1367" gradientUnits="userSpaceOnUse">
<stop stop-color="#9EE1EC"/>
<stop offset="1" stop-color="#E5A7E0"/>
</linearGradient>
<linearGradient id="paint29_linear_326_50" x1="141.621" y1="907.867" x2="873.411" y2="1365.14" gradientUnits="userSpaceOnUse">
<stop stop-color="#9EE1EC"/>
<stop offset="1" stop-color="#E5A7E0"/>
</linearGradient>
<linearGradient id="paint30_linear_326_50" x1="145.98" y1="918.86" x2="885.269" y2="1363.07" gradientUnits="userSpaceOnUse">
<stop stop-color="#9EE1EC"/>
<stop offset="1" stop-color="#E5A7E0"/>
</linearGradient>
<linearGradient id="paint31_linear_326_50" x1="150.525" y1="929.769" x2="897.08" y2="1360.79" gradientUnits="userSpaceOnUse">
<stop stop-color="#9EE1EC"/>
<stop offset="1" stop-color="#E5A7E0"/>
</linearGradient>
<linearGradient id="paint32_linear_326_50" x1="155.255" y1="940.589" x2="908.84" y2="1358.31" gradientUnits="userSpaceOnUse">
<stop stop-color="#9EE1EC"/>
<stop offset="1" stop-color="#E5A7E0"/>
</linearGradient>
<linearGradient id="paint33_linear_326_50" x1="160.168" y1="951.318" x2="920.547" y2="1355.62" gradientUnits="userSpaceOnUse">
<stop stop-color="#9EE1EC"/>
<stop offset="1" stop-color="#E5A7E0"/>
</linearGradient>
<linearGradient id="paint34_linear_326_50" x1="165.262" y1="961.955" x2="932.196" y2="1352.73" gradientUnits="userSpaceOnUse">
<stop stop-color="#9EE1EC"/>
<stop offset="1" stop-color="#E5A7E0"/>
</linearGradient>
<linearGradient id="paint35_linear_326_50" x1="170.536" y1="972.491" x2="943.785" y2="1349.63" gradientUnits="userSpaceOnUse">
<stop stop-color="#9EE1EC"/>
<stop offset="1" stop-color="#E5A7E0"/>
</linearGradient>
<linearGradient id="paint36_linear_326_50" x1="175.988" y1="982.929" x2="955.31" y2="1346.33" gradientUnits="userSpaceOnUse">
<stop stop-color="#9EE1EC"/>
<stop offset="1" stop-color="#E5A7E0"/>
</linearGradient>
<linearGradient id="paint37_linear_326_50" x1="181.617" y1="993.265" x2="966.768" y2="1342.84" gradientUnits="userSpaceOnUse">
<stop stop-color="#9EE1EC"/>
<stop offset="1" stop-color="#E5A7E0"/>
</linearGradient>
<linearGradient id="paint38_linear_326_50" x1="187.42" y1="1003.49" x2="978.154" y2="1339.14" gradientUnits="userSpaceOnUse">
<stop stop-color="#9EE1EC"/>
<stop offset="1" stop-color="#E5A7E0"/>
</linearGradient>
<linearGradient id="paint39_linear_326_50" x1="193.393" y1="1013.61" x2="989.464" y2="1335.24" gradientUnits="userSpaceOnUse">
<stop stop-color="#9EE1EC"/>
<stop offset="1" stop-color="#E5A7E0"/>
</linearGradient>
<linearGradient id="paint40_linear_326_50" x1="199.538" y1="1023.62" x2="1000.7" y2="1331.15" gradientUnits="userSpaceOnUse">
<stop stop-color="#9EE1EC"/>
<stop offset="1" stop-color="#E5A7E0"/>
</linearGradient>
<linearGradient id="paint41_linear_326_50" x1="205.85" y1="1033.51" x2="1011.85" y2="1326.87" gradientUnits="userSpaceOnUse">
<stop stop-color="#9EE1EC"/>
<stop offset="1" stop-color="#E5A7E0"/>
</linearGradient>
<linearGradient id="paint42_linear_326_50" x1="212.33" y1="1043.28" x2="1022.92" y2="1322.39" gradientUnits="userSpaceOnUse">
<stop stop-color="#9EE1EC"/>
<stop offset="1" stop-color="#E5A7E0"/>
</linearGradient>
<linearGradient id="paint43_linear_326_50" x1="218.97" y1="1052.94" x2="1033.89" y2="1317.72" gradientUnits="userSpaceOnUse">
<stop stop-color="#9EE1EC"/>
<stop offset="1" stop-color="#E5A7E0"/>
</linearGradient>
<linearGradient id="paint44_linear_326_50" x1="225.774" y1="1062.47" x2="1044.78" y2="1312.86" gradientUnits="userSpaceOnUse">
<stop stop-color="#9EE1EC"/>
<stop offset="1" stop-color="#E5A7E0"/>
</linearGradient>
<linearGradient id="paint45_linear_326_50" x1="232.736" y1="1071.87" x2="1055.58" y2="1307.82" gradientUnits="userSpaceOnUse">
<stop stop-color="#9EE1EC"/>
<stop offset="1" stop-color="#E5A7E0"/>
</linearGradient>
<linearGradient id="paint46_linear_326_50" x1="239.855" y1="1081.15" x2="1066.27" y2="1302.58" gradientUnits="userSpaceOnUse">
<stop stop-color="#9EE1EC"/>
<stop offset="1" stop-color="#E5A7E0"/>
</linearGradient>
<linearGradient id="paint47_linear_326_50" x1="247.129" y1="1090.29" x2="1076.86" y2="1297.17" gradientUnits="userSpaceOnUse">
<stop stop-color="#9EE1EC"/>
<stop offset="1" stop-color="#E5A7E0"/>
</linearGradient>
<linearGradient id="paint48_linear_326_50" x1="254.556" y1="1099.3" x2="1087.35" y2="1291.57" gradientUnits="userSpaceOnUse">
<stop stop-color="#9EE1EC"/>
<stop offset="1" stop-color="#E5A7E0"/>
</linearGradient>
<linearGradient id="paint49_linear_326_50" x1="262.13" y1="1108.18" x2="1097.73" y2="1285.79" gradientUnits="userSpaceOnUse">
<stop stop-color="#9EE1EC"/>
<stop offset="1" stop-color="#E5A7E0"/>
</linearGradient>
<linearGradient id="paint50_linear_326_50" x1="269.854" y1="1116.91" x2="1108.01" y2="1279.83" gradientUnits="userSpaceOnUse">
<stop stop-color="#9EE1EC"/>
<stop offset="1" stop-color="#E5A7E0"/>
</linearGradient>
<linearGradient id="paint51_linear_326_50" x1="277.721" y1="1125.51" x2="1118.16" y2="1273.7" gradientUnits="userSpaceOnUse">
<stop stop-color="#9EE1EC"/>
<stop offset="1" stop-color="#E5A7E0"/>
</linearGradient>
<linearGradient id="paint52_linear_326_50" x1="285.729" y1="1133.96" x2="1128.2" y2="1267.39" gradientUnits="userSpaceOnUse">
<stop stop-color="#9EE1EC"/>
<stop offset="1" stop-color="#E5A7E0"/>
</linearGradient>
<linearGradient id="paint53_linear_326_50" x1="293.877" y1="1142.26" x2="1138.12" y2="1260.91" gradientUnits="userSpaceOnUse">
<stop stop-color="#9EE1EC"/>
<stop offset="1" stop-color="#E5A7E0"/>
</linearGradient>
<linearGradient id="paint54_linear_326_50" x1="302.161" y1="1150.42" x2="1147.92" y2="1254.27" gradientUnits="userSpaceOnUse">
<stop stop-color="#9EE1EC"/>
<stop offset="1" stop-color="#E5A7E0"/>
</linearGradient>
<linearGradient id="paint55_linear_326_50" x1="310.581" y1="1158.43" x2="1157.59" y2="1247.45" gradientUnits="userSpaceOnUse">
<stop stop-color="#9EE1EC"/>
<stop offset="1" stop-color="#E5A7E0"/>
</linearGradient>
<linearGradient id="paint56_linear_326_50" x1="319.131" y1="1166.28" x2="1167.14" y2="1240.47" gradientUnits="userSpaceOnUse">
<stop stop-color="#9EE1EC"/>
<stop offset="1" stop-color="#E5A7E0"/>
</linearGradient>
<linearGradient id="paint57_linear_326_50" x1="327.809" y1="1173.98" x2="1176.55" y2="1233.33" gradientUnits="userSpaceOnUse">
<stop stop-color="#9EE1EC"/>
<stop offset="1" stop-color="#E5A7E0"/>
</linearGradient>
<linearGradient id="paint58_linear_326_50" x1="336.615" y1="1181.52" x2="1185.83" y2="1226.03" gradientUnits="userSpaceOnUse">
<stop stop-color="#9EE1EC"/>
<stop offset="1" stop-color="#E5A7E0"/>
</linearGradient>
<linearGradient id="paint59_linear_326_50" x1="345.543" y1="1188.9" x2="1194.98" y2="1218.57" gradientUnits="userSpaceOnUse">
<stop stop-color="#9EE1EC"/>
<stop offset="1" stop-color="#E5A7E0"/>
</linearGradient>
<linearGradient id="paint60_linear_326_50" x1="354.591" y1="1196.13" x2="1203.98" y2="1210.95" gradientUnits="userSpaceOnUse">
<stop stop-color="#9EE1EC"/>
<stop offset="1" stop-color="#E5A7E0"/>
</linearGradient>
<linearGradient id="paint61_linear_326_50" x1="363.754" y1="1203.19" x2="1212.84" y2="1203.19" gradientUnits="userSpaceOnUse">
<stop stop-color="#9EE1EC"/>
<stop offset="1" stop-color="#E5A7E0"/>
</linearGradient>
<linearGradient id="paint62_linear_326_50" x1="373.034" y1="1210.08" x2="1221.56" y2="1195.27" gradientUnits="userSpaceOnUse">
<stop stop-color="#9EE1EC"/>
<stop offset="1" stop-color="#E5A7E0"/>
</linearGradient>
<linearGradient id="paint63_linear_326_50" x1="382.424" y1="1216.81" x2="1230.13" y2="1187.21" gradientUnits="userSpaceOnUse">
<stop stop-color="#9EE1EC"/>
<stop offset="1" stop-color="#E5A7E0"/>
</linearGradient>
<linearGradient id="paint64_linear_326_50" x1="391.922" y1="1223.37" x2="1238.55" y2="1179" gradientUnits="userSpaceOnUse">
<stop stop-color="#9EE1EC"/>
<stop offset="1" stop-color="#E5A7E0"/>
</linearGradient>
<linearGradient id="paint65_linear_326_50" x1="401.525" y1="1229.76" x2="1246.82" y2="1170.65" gradientUnits="userSpaceOnUse">
<stop stop-color="#9EE1EC"/>
<stop offset="1" stop-color="#E5A7E0"/>
</linearGradient>
<linearGradient id="paint66_linear_326_50" x1="411.231" y1="1235.98" x2="1254.94" y2="1162.16" gradientUnits="userSpaceOnUse">
<stop stop-color="#9EE1EC"/>
<stop offset="1" stop-color="#E5A7E0"/>
</linearGradient>
<linearGradient id="paint67_linear_326_50" x1="421.038" y1="1242.02" x2="1262.9" y2="1153.54" gradientUnits="userSpaceOnUse">
<stop stop-color="#9EE1EC"/>
<stop offset="1" stop-color="#E5A7E0"/>
</linearGradient>
<linearGradient id="paint68_linear_326_50" x1="430.938" y1="1247.89" x2="1270.7" y2="1144.78" gradientUnits="userSpaceOnUse">
<stop stop-color="#9EE1EC"/>
<stop offset="1" stop-color="#E5A7E0"/>
</linearGradient>
<linearGradient id="paint69_linear_326_50" x1="440.934" y1="1253.59" x2="1278.34" y2="1135.9" gradientUnits="userSpaceOnUse">
<stop stop-color="#9EE1EC"/>
<stop offset="1" stop-color="#E5A7E0"/>
</linearGradient>
<linearGradient id="paint70_linear_326_50" x1="451.122" y1="1259.08" x2="1285.71" y2="1126.9" gradientUnits="userSpaceOnUse">
<stop stop-color="#9EE1EC"/>
<stop offset="1" stop-color="#E5A7E0"/>
</linearGradient>
<linearGradient id="paint71_linear_326_50" x1="461.165" y1="1264.57" x2="1293.19" y2="1117.86" gradientUnits="userSpaceOnUse">
<stop stop-color="#9EE1EC"/>
<stop offset="1" stop-color="#E5A7E0"/>
</linearGradient>
<linearGradient id="paint72_linear_326_50" x1="1281.86" y1="1511.24" x2="937.701" y2="1134.65" gradientUnits="userSpaceOnUse">
<stop stop-color="#FF7777"/>
<stop offset="1" stop-color="#EF234C"/>
</linearGradient>
<linearGradient id="paint73_linear_326_50" x1="1148.68" y1="1408.82" x2="889.164" y2="1165.32" gradientUnits="userSpaceOnUse">
<stop stop-color="#FF7777"/>
<stop offset="1" stop-color="#EF234C"/>
</linearGradient>
<radialGradient id="paint74_angular_326_50" cx="0" cy="0" r="1" gradientUnits="userSpaceOnUse" gradientTransform="translate(1200.97 1294.49) rotate(67.1948) scale(124.752 218.216)">
<stop offset="0.0846014" stop-color="#6284FF"/>
<stop offset="0.142837" stop-color="#FF72B6"/>
<stop offset="0.26305" stop-color="#F9E5E8"/>
<stop offset="0.469886" stop-color="#97E1D4"/>
</radialGradient>
<radialGradient id="paint75_angular_326_50" cx="0" cy="0" r="1" gradientUnits="userSpaceOnUse" gradientTransform="translate(1241.66 1429.03) rotate(135) scale(304.462 586.55)">
<stop offset="0.0835999" stop-color="#A7AEF9"/>
<stop offset="0.319454" stop-color="#DDCCF8"/>
<stop offset="0.48436" stop-color="#FAF1EE"/>
<stop offset="0.702849" stop-color="#F5C9D9"/>
<stop offset="0.919104" stop-color="#CEBBFA"/>
</radialGradient>
<radialGradient id="paint76_angular_326_50" cx="0" cy="0" r="1" gradientUnits="userSpaceOnUse" gradientTransform="translate(1151.88 1380.76) rotate(-45) scale(298.414 539.63)">
<stop offset="0.0835999" stop-color="#A7AEF9"/>
<stop offset="0.319454" stop-color="#DDCCF8"/>
<stop offset="0.48436" stop-color="#FAF1EE"/>
<stop offset="0.702849" stop-color="#F5C9D9"/>
<stop offset="0.919104" stop-color="#CEBBFA"/>
</radialGradient>
<linearGradient id="paint77_linear_326_50" x1="1249.85" y1="1174.27" x2="912.583" y2="1659.05" gradientUnits="userSpaceOnUse">
<stop stop-color="#E0B2E8"/>
<stop offset="0.331541" stop-color="#A7ADF9" stop-opacity="0"/>
</linearGradient>
</defs>
</svg>
