<svg width="360" height="302" viewBox="0 0 360 302" fill="none" xmlns="http://www.w3.org/2000/svg">
<g filter="url(#filter0_b_313_50)">
<rect width="159.755" height="179.724" rx="20.8394" transform="matrix(0.83147 0.55557 -0.707107 0.707107 221.414 21.0002)" fill="#17153B"/>
<rect x="0.0431941" y="0.438557" width="159.06" height="179.029" rx="20.4921" transform="matrix(0.83147 0.55557 -0.707107 0.707107 221.732 21.1047)" stroke="url(#paint0_linear_313_50)" stroke-width="0.694646" style="mix-blend-mode:overlay"/>
</g>
<path d="M214.322 108.384C215.076 107.257 215.657 106.057 216.066 104.787C216.505 103.537 216.664 102.276 216.544 101.004C216.475 99.7229 216.08 98.4664 215.36 97.2349C214.639 96.0034 213.517 94.8781 211.993 93.859C209.311 92.0654 206.688 91.4363 204.125 91.9717C201.582 92.4766 199.098 94.0138 196.674 96.5833L214.322 108.384ZM190.988 104.691C188.796 108.959 188.074 112.644 188.822 115.747C189.59 118.819 191.514 121.385 194.592 123.443C196.238 124.544 197.788 125.293 199.242 125.692C200.696 126.091 202.043 126.352 203.283 126.476C204.554 126.62 205.703 126.749 206.73 126.862C207.787 126.996 208.743 127.348 209.596 127.918C210.724 128.673 211.302 129.655 211.331 130.865L212.052 138.691C209.468 139.389 206.966 139.701 204.546 139.627C202.177 139.542 199.889 139.203 197.683 138.61C195.528 138.007 193.48 137.211 191.539 136.222C189.608 135.284 187.835 134.274 186.219 133.194C182.897 130.973 180.13 128.35 177.917 125.327C175.755 122.293 174.29 118.976 173.522 115.375C172.785 111.794 172.836 107.991 173.676 103.965C174.546 99.9591 176.387 95.8532 179.2 91.647C181.319 88.4771 183.86 85.8315 186.823 83.7102C189.815 81.6093 193.031 80.1646 196.469 79.3762C199.938 78.6082 203.523 78.5573 207.224 79.2235C210.955 79.9101 214.634 81.4661 218.261 83.8915C221.401 85.9908 223.94 88.3944 225.878 91.1022C227.848 93.8304 229.14 96.7457 229.756 99.8483C230.403 102.971 230.337 106.236 229.559 109.641C228.832 113.037 227.328 116.442 225.045 119.855C224.332 120.922 223.705 121.76 223.165 122.37C222.625 122.979 222.101 123.4 221.592 123.634C221.083 123.867 220.565 123.917 220.036 123.784C219.538 123.671 218.969 123.401 218.329 122.973L190.988 104.691Z" fill="white"/>
<path d="M221.061 113.149C221.746 112.124 222.275 111.034 222.646 109.878C223.045 108.742 223.19 107.596 223.081 106.44C223.018 105.275 222.659 104.133 222.004 103.013C221.349 101.894 220.329 100.871 218.943 99.9441C216.505 98.3135 214.121 97.7416 211.79 98.2283C209.478 98.6874 207.221 100.085 205.017 102.421L221.061 113.149ZM199.848 109.791C197.855 113.671 197.198 117.022 197.879 119.842C198.577 122.635 200.326 124.967 203.125 126.839C204.621 127.839 206.03 128.521 207.351 128.883C208.673 129.246 209.897 129.483 211.025 129.596C212.181 129.727 213.225 129.844 214.159 129.947C215.12 130.068 215.989 130.388 216.764 130.907C217.79 131.593 218.315 132.486 218.342 133.586L218.997 140.701C216.648 141.335 214.373 141.619 212.173 141.551C210.019 141.474 207.94 141.166 205.934 140.627C203.975 140.079 202.113 139.355 200.349 138.456C198.593 137.603 196.981 136.685 195.513 135.703C192.492 133.684 189.976 131.3 187.965 128.551C186 125.793 184.668 122.777 183.97 119.504C183.3 116.249 183.346 112.791 184.109 109.131C184.9 105.49 186.574 101.757 189.131 97.9331C191.058 95.0514 193.368 92.6463 196.061 90.7179C198.782 88.808 201.705 87.4946 204.831 86.7779C207.984 86.0797 211.243 86.0334 214.608 86.639C218 87.2632 221.344 88.6778 224.642 90.8827C227.496 92.7912 229.804 94.9762 231.566 97.4379C233.356 99.918 234.531 102.568 235.091 105.389C235.679 108.228 235.62 111.195 234.913 114.292C234.252 117.378 232.884 120.474 230.809 123.577C230.16 124.547 229.591 125.309 229.1 125.863C228.609 126.417 228.132 126.8 227.67 127.012C227.207 127.224 226.736 127.269 226.255 127.149C225.802 127.046 225.285 126.8 224.703 126.411L199.848 109.791Z" fill="white" fill-opacity="0.2"/>
<path d="M235.881 136.792C235.141 138.036 234.703 139.348 234.568 140.73C234.465 142.104 234.548 143.404 234.817 144.628C235.243 146.562 236.245 148.2 237.824 149.542C239.443 150.909 241.379 151.953 243.632 152.674C245.918 153.387 248.405 153.786 251.093 153.871C253.781 153.955 256.43 153.71 259.04 153.136C262.392 152.398 264.741 151.324 266.086 149.913C267.438 148.534 267.916 146.943 267.519 145.138C267.257 143.945 266.552 142.816 265.405 141.751C264.298 140.711 262.872 139.757 261.127 138.891C259.421 138.05 257.46 137.349 255.242 136.79C253.024 136.23 250.692 135.848 248.248 135.642L235.881 136.792ZM264.312 133.325C268.181 134.94 271.402 136.985 273.974 139.46C276.578 141.928 278.245 144.822 278.975 148.142C279.429 150.205 279.47 152.155 279.097 153.994C278.732 155.866 277.907 157.568 276.622 159.101C275.377 160.658 273.649 162.019 271.438 163.181C269.234 164.375 266.52 165.327 263.298 166.036C260.429 166.667 257.558 166.978 254.684 166.968C251.849 166.983 249.106 166.725 246.455 166.194C243.803 165.662 241.296 164.862 238.932 163.794C236.608 162.751 234.506 161.49 232.626 160.011C230.779 158.526 229.209 156.843 227.918 154.965C226.665 153.112 225.801 151.106 225.326 148.946C224.851 146.787 224.793 144.756 225.151 142.852C225.51 140.949 226.192 139.211 227.197 137.638L207.135 139.517L204.284 126.561L272.039 120.069L273.539 126.885C273.844 128.271 273.743 129.425 273.236 130.348C272.729 131.27 271.735 131.894 270.252 132.22L264.312 133.325Z" fill="white"/>
<path d="M242.261 136.246C241.521 137.49 241.083 138.803 240.948 140.184C240.845 141.558 240.928 142.858 241.197 144.083C241.623 146.016 242.625 147.654 244.204 148.996C245.823 150.363 247.759 151.407 250.012 152.128C252.298 152.842 254.785 153.241 257.473 153.325C260.16 153.409 262.81 153.165 265.42 152.59C268.772 151.853 271.121 150.779 272.466 149.368C273.818 147.989 274.296 146.397 273.899 144.592C273.636 143.4 272.932 142.271 271.785 141.205C270.678 140.165 269.252 139.212 267.507 138.345C265.801 137.504 263.839 136.804 261.621 136.244C259.403 135.685 257.072 135.302 254.628 135.096L242.261 136.246ZM270.692 132.779C274.561 134.394 277.782 136.439 280.354 138.915C282.958 141.383 284.625 144.277 285.355 147.596C285.809 149.659 285.85 151.61 285.477 153.449C285.112 155.32 284.287 157.022 283.002 158.555C281.757 160.113 280.029 161.473 277.818 162.635C275.614 163.83 272.9 164.781 269.677 165.49C266.809 166.121 263.938 166.432 261.064 166.422C258.229 166.438 255.486 166.18 252.834 165.648C250.183 165.116 247.676 164.316 245.312 163.248C242.988 162.205 240.886 160.944 239.006 159.466C237.159 157.98 235.589 156.298 234.297 154.42C233.045 152.566 232.181 150.56 231.706 148.401C231.231 146.241 231.173 144.21 231.531 142.306C231.89 140.403 232.572 138.665 233.577 137.092L213.514 138.972L210.664 126.016L278.419 119.523L279.919 126.339C280.224 127.725 280.123 128.879 279.616 129.802C279.109 130.724 278.115 131.349 276.632 131.675L270.692 132.779Z" fill="white" fill-opacity="0.2"/>
<g filter="url(#filter1_b_313_50)">
<rect width="145.196" height="163.345" rx="20.8394" transform="matrix(0.83147 0.55557 -0.707107 0.707107 115.503 67.0002)" fill="white" fill-opacity="0.4"/>
<rect x="0.0431941" y="0.438557" width="144.501" height="162.651" rx="20.4921" transform="matrix(0.83147 0.55557 -0.707107 0.707107 115.82 67.1047)" stroke="url(#paint1_linear_313_50)" stroke-width="0.694646" style="mix-blend-mode:overlay"/>
</g>
<defs>
<filter id="filter0_b_313_50" x="52.6516" y="-20.6785" width="343.273" height="299.196" filterUnits="userSpaceOnUse" color-interpolation-filters="sRGB">
<feFlood flood-opacity="0" result="BackgroundImageFix"/>
<feGaussianBlur in="BackgroundImageFix" stdDeviation="20.8394"/>
<feComposite in2="SourceAlpha" operator="in" result="effect1_backgroundBlur_313_50"/>
<feBlend mode="normal" in="SourceGraphic" in2="effect1_backgroundBlur_313_50" result="shape"/>
</filter>
<filter id="filter1_b_313_50" x="-41.6788" y="25.3215" width="319.586" height="279.526" filterUnits="userSpaceOnUse" color-interpolation-filters="sRGB">
<feFlood flood-opacity="0" result="BackgroundImageFix"/>
<feGaussianBlur in="BackgroundImageFix" stdDeviation="20.8394"/>
<feComposite in2="SourceAlpha" operator="in" result="effect1_backgroundBlur_313_50"/>
<feBlend mode="normal" in="SourceGraphic" in2="effect1_backgroundBlur_313_50" result="shape"/>
</filter>
<linearGradient id="paint0_linear_313_50" x1="0" y1="0" x2="178.484" y2="158.653" gradientUnits="userSpaceOnUse">
<stop stop-color="white" stop-opacity="0.6"/>
<stop offset="1"/>
</linearGradient>
<linearGradient id="paint1_linear_313_50" x1="0" y1="0" x2="162.219" y2="144.194" gradientUnits="userSpaceOnUse">
<stop stop-color="white" stop-opacity="0.6"/>
<stop offset="1"/>
</linearGradient>
</defs>
</svg>
