<svg width="211" height="223" viewBox="0 0 211 223" fill="none" xmlns="http://www.w3.org/2000/svg">
<path d="M84.8652 73.635C84.8652 72.2783 84.6819 70.9583 84.3152 69.675C83.9852 68.3917 83.4169 67.255 82.6102 66.265C81.8402 65.2383 80.8136 64.4133 79.5302 63.79C78.2469 63.1667 76.6886 62.855 74.8552 62.855C71.6286 62.855 69.0986 63.79 67.2652 65.66C65.4319 67.4933 64.2219 70.1517 63.6352 73.635H84.8652ZM63.4152 83.535C63.9652 88.3017 65.4136 91.7667 67.7602 93.93C70.1069 96.0567 73.1319 97.12 76.8352 97.12C78.8152 97.12 80.5202 96.8817 81.9502 96.405C83.3802 95.9283 84.6452 95.3967 85.7452 94.81C86.8819 94.2233 87.9086 93.6917 88.8252 93.215C89.7786 92.7383 90.7686 92.5 91.7952 92.5C93.1519 92.5 94.1786 92.995 94.8752 93.985L99.8252 100.09C98.0652 102.107 96.1586 103.757 94.1052 105.04C92.0886 106.287 89.9986 107.277 87.8352 108.01C85.7086 108.707 83.5636 109.183 81.4002 109.44C79.2736 109.733 77.2386 109.88 75.2952 109.88C71.2986 109.88 67.5402 109.238 64.0202 107.955C60.5369 106.635 57.4752 104.692 54.8352 102.125C52.2319 99.5583 50.1602 96.3683 48.6202 92.555C47.1169 88.7417 46.3652 84.305 46.3652 79.245C46.3652 75.4317 47.0069 71.82 48.2902 68.41C49.6102 65 51.4802 62.0117 53.9002 59.445C56.3569 56.8783 59.3086 54.8433 62.7552 53.34C66.2386 51.8367 70.1619 51.085 74.5252 51.085C78.3019 51.085 81.7486 51.6717 84.8652 52.845C88.0186 54.0183 90.7136 55.7233 92.9502 57.96C95.2236 60.1967 96.9836 62.9467 98.2302 66.21C99.5136 69.4367 100.155 73.1033 100.155 77.21C100.155 78.4933 100.1 79.5383 99.9902 80.345C99.8802 81.1517 99.6786 81.7933 99.3852 82.27C99.0919 82.7467 98.6886 83.0767 98.1752 83.26C97.6986 83.4433 97.0752 83.535 96.3052 83.535H63.4152Z" fill="white"/>
<path d="M93.1152 73.85C93.1152 72.6167 92.9486 71.4167 92.6152 70.25C92.3152 69.0833 91.7986 68.05 91.0652 67.15C90.3652 66.2167 89.4319 65.4667 88.2652 64.9C87.0986 64.3333 85.6819 64.05 84.0152 64.05C81.0819 64.05 78.7819 64.9 77.1152 66.6C75.4486 68.2667 74.3486 70.6833 73.8152 73.85H93.1152ZM73.6152 82.85C74.1152 87.1833 75.4319 90.3333 77.5652 92.3C79.6986 94.2333 82.4486 95.2 85.8152 95.2C87.6152 95.2 89.1652 94.9833 90.4652 94.55C91.7652 94.1167 92.9152 93.6333 93.9152 93.1C94.9486 92.5667 95.8819 92.0833 96.7152 91.65C97.5819 91.2167 98.4819 91 99.4152 91C100.649 91 101.582 91.45 102.215 92.35L106.715 97.9C105.115 99.7333 103.382 101.233 101.515 102.4C99.6819 103.533 97.7819 104.433 95.8152 105.1C93.8819 105.733 91.9319 106.167 89.9652 106.4C88.0319 106.667 86.1819 106.8 84.4152 106.8C80.7819 106.8 77.3652 106.217 74.1652 105.05C70.9986 103.85 68.2152 102.083 65.8152 99.75C63.4486 97.4167 61.5652 94.5167 60.1652 91.05C58.7986 87.5833 58.1152 83.55 58.1152 78.95C58.1152 75.4833 58.6986 72.2 59.8652 69.1C61.0652 66 62.7652 63.2833 64.9652 60.95C67.1986 58.6167 69.8819 56.7667 73.0152 55.4C76.1819 54.0333 79.7486 53.35 83.7152 53.35C87.1486 53.35 90.2819 53.8833 93.1152 54.95C95.9819 56.0167 98.4319 57.5667 100.465 59.6C102.532 61.6333 104.132 64.1333 105.265 67.1C106.432 70.0333 107.015 73.3667 107.015 77.1C107.015 78.2667 106.965 79.2167 106.865 79.95C106.765 80.6833 106.582 81.2667 106.315 81.7C106.049 82.1333 105.682 82.4333 105.215 82.6C104.782 82.7667 104.215 82.85 103.515 82.85H73.6152Z" fill="white" fill-opacity="0.2"/>
<path d="M118.577 85.2655C118.654 86.711 119.019 88.0455 119.675 89.269C120.353 90.4687 121.144 91.5027 122.049 92.371C123.478 93.742 125.221 94.5464 127.28 94.7841C129.386 95.0209 131.575 94.8125 133.849 94.159C136.146 93.4816 138.435 92.4309 140.716 91.007C142.997 89.5831 145.063 87.9069 146.914 85.9783C149.291 83.5022 150.646 81.3037 150.98 79.383C151.338 77.4852 150.85 75.8965 149.516 74.6169C148.636 73.7714 147.422 73.2245 145.877 72.9762C144.378 72.727 142.663 72.7272 140.73 72.977C138.845 73.2258 136.825 73.7341 134.67 74.5019C132.515 75.2698 130.365 76.2476 128.219 77.4353L118.577 85.2655ZM140.284 66.5795C144.398 65.7714 148.213 65.6813 151.726 66.3093C155.263 66.9134 158.258 68.3922 160.71 70.7458C162.234 72.2082 163.352 73.8073 164.064 75.5431C164.801 77.3018 165.061 79.1752 164.845 81.1635C164.676 83.1509 163.995 85.2421 162.803 87.4371C161.635 89.6551 159.909 91.9545 157.624 94.3354C155.59 96.4544 153.376 98.3087 150.981 99.8984C148.633 101.487 146.21 102.797 143.71 103.829C141.211 104.86 138.682 105.589 136.123 106.015C133.611 106.44 131.163 106.561 128.779 106.376C126.417 106.168 124.177 105.642 122.06 104.799C119.988 103.955 118.155 102.767 116.56 101.236C114.965 99.7052 113.787 98.049 113.027 96.2675C112.267 94.486 111.867 92.662 111.829 90.7957L96.1963 103.51L86.625 94.3246L139.339 51.2649L144.375 56.0977C145.398 57.0802 145.956 58.0957 146.048 59.1441C146.139 60.1925 145.659 61.2643 144.608 62.3595L140.284 66.5795Z" fill="white"/>
<path d="M123.577 81.2655C123.654 82.711 124.019 84.0455 124.675 85.269C125.353 86.4687 126.144 87.5027 127.049 88.371C128.478 89.742 130.221 90.5464 132.28 90.7841C134.386 91.0209 136.575 90.8125 138.849 90.159C141.146 89.4816 143.435 88.4309 145.716 87.007C147.997 85.5831 150.063 83.9069 151.914 81.9783C154.291 79.5022 155.646 77.3037 155.98 75.383C156.338 73.4852 155.85 71.8965 154.516 70.6169C153.636 69.7714 152.422 69.2245 150.877 68.9762C149.378 68.727 147.663 68.7272 145.73 68.977C143.845 69.2258 141.825 69.7341 139.67 70.5019C137.515 71.2698 135.365 72.2476 133.219 73.4353L123.577 81.2655ZM145.284 62.5795C149.398 61.7714 153.213 61.6813 156.726 62.3093C160.263 62.9134 163.258 64.3922 165.71 66.7458C167.234 68.2082 168.352 69.8073 169.064 71.5431C169.801 73.3018 170.061 75.1752 169.845 77.1635C169.676 79.1509 168.995 81.2421 167.803 83.4371C166.635 85.6551 164.909 87.9545 162.624 90.3354C160.59 92.4544 158.376 94.3087 155.981 95.8984C153.633 97.4871 151.21 98.7972 148.71 99.8288C146.211 100.86 143.682 101.589 141.123 102.015C138.611 102.44 136.163 102.561 133.779 102.376C131.417 102.168 129.177 101.642 127.06 100.799C124.988 99.9547 123.155 98.7671 121.56 97.2362C119.965 95.7052 118.787 94.049 118.027 92.2675C117.267 90.486 116.867 88.662 116.829 86.7957L101.196 99.5103L91.625 90.3246L144.339 47.2649L149.375 52.0977C150.398 53.0802 150.956 54.0957 151.048 55.1441C151.139 56.1925 150.659 57.2643 149.608 58.3595L145.284 62.5795Z" fill="white" fill-opacity="0.3"/>
</svg>
