<svg width="124" height="63" viewBox="0 0 124 63" fill="none" xmlns="http://www.w3.org/2000/svg">
<path d="M38.5 26.3701C38.5 25.0134 38.3167 23.6934 37.95 22.4101C37.62 21.1268 37.0517 19.9901 36.245 19.0001C35.475 17.9734 34.4484 17.1484 33.165 16.5251C31.8817 15.9018 30.3234 15.5901 28.49 15.5901C25.2634 15.5901 22.7334 16.5251 20.9 18.3951C19.0667 20.2284 17.8567 22.8868 17.27 26.3701H38.5ZM17.05 36.2701C17.6 41.0368 19.0484 44.5018 21.395 46.6651C23.7417 48.7918 26.7667 49.8551 30.47 49.8551C32.45 49.8551 34.155 49.6168 35.585 49.1401C37.015 48.6634 38.28 48.1318 39.38 47.5451C40.5167 46.9584 41.5834 45.9767 42.5 45.5C43.4534 45.0233 44.4734 44 45.5 44C46.8567 44 47.8134 45.7301 48.51 46.7201L53.46 52.8251C51.7 54.8421 49.7934 56.4921 47.74 57.7751C45.7234 59.0221 43.6334 60.0121 41.47 60.7451C39.3434 61.4421 37.1984 61.9181 35.035 62.1751C32.9084 62.4681 30.8734 62.6151 28.93 62.6151C24.9334 62.6151 21.175 61.9731 17.655 60.6901C14.1717 59.3701 11.11 57.4271 8.47 54.8601C5.8667 52.2934 3.795 49.1034 2.255 45.2901C0.751701 41.4768 0 37.0401 0 31.9801C0 28.1668 0.641699 24.5551 1.925 21.1451C3.245 17.7351 5.115 14.7468 7.535 12.1801C9.9917 9.61337 12.9434 7.57837 16.39 6.07507C19.8734 4.57177 23.7967 3.82007 28.16 3.82007C31.9367 3.82007 35.3834 4.40677 38.5 5.58007C41.6534 6.75337 44.3484 8.45837 46.585 10.6951C48.8584 12.9318 50.6184 15.6818 51.865 18.9451C53.1484 22.1718 53.7898 25.8384 53.7898 29.9451C53.7898 31.2284 53.7348 32.2734 53.625 33.0801C53.515 33.8868 53.3134 34.5284 53.02 35.0051C52.7267 35.4818 52.3234 35.8118 51.81 35.9951C51.3334 36.1784 50.71 36.2701 49.94 36.2701H17.05Z" fill="white"/>
<path d="M46.75 26.585C46.75 25.3517 46.5834 24.1517 46.25 22.985C45.95 21.8183 45.4334 20.785 44.7 19.885C44 18.9517 43.0667 18.2017 41.9 17.635C40.7334 17.0683 39.3167 16.785 37.65 16.785C34.7167 16.785 32.4167 17.635 30.75 19.335C29.0834 21.0017 27.9834 23.4183 27.45 26.585H46.75ZM27.25 35.585C27.75 39.9183 29.0667 43.0683 31.2 45.035C33.3334 46.9683 36.0834 47.935 39.45 47.935C41.25 47.935 42.8 47.7183 44.1 47.285C45.4 46.8517 46.55 46.3683 47.55 45.835C48.5834 45.3017 49.5167 44.8183 50.35 44.385C51.2167 43.9517 52.1167 43.735 53.05 43.735C54.2838 43.735 55.2168 44.185 55.8498 45.085L58.8498 48.735C57.1348 50.235 55.1348 51.735 52.6348 53.735C50.8017 54.868 50.1348 56.735 48.1348 57.235C46.6348 58.735 45.6348 59.235 43.6 59.135C41.6667 59.402 39.8167 59.535 38.05 59.535C34.4167 59.535 31 58.952 27.8 57.785C24.6334 56.585 21.85 54.818 19.45 52.485C17.0834 50.1517 15.2 47.2517 13.8 43.785C12.4334 40.3183 11.75 36.285 11.75 31.685C11.75 28.2183 12.3334 24.935 13.5 21.835C14.7 18.735 16.4 16.0183 18.6 13.685C20.8334 11.3517 23.5167 9.50166 26.65 8.13496C29.8167 6.76826 33.3834 6.08496 37.35 6.08496C40.7834 6.08496 43.9167 6.61826 46.75 7.68496C49.6167 8.75166 52.0667 10.3017 54.0998 12.335C56.1668 14.3683 57.7668 16.8683 58.8998 19.835C60.0668 22.7683 60.6498 26.1017 60.6498 29.835C60.6498 31.0017 60.5998 31.9517 60.4998 32.685C60.3998 33.4183 60.2168 34.0017 59.9498 34.435C59.6838 34.8683 59.3168 35.1683 58.8498 35.335C58.4168 35.5017 57.8498 35.585 57.1498 35.585H27.25Z" fill="white" fill-opacity="0.2"/>
<path d="M72.2118 38.0006C72.2888 39.4461 72.6538 40.7806 73.3098 42.0041C73.9878 43.2038 74.7788 44.2378 75.6838 45.1061C77.1128 46.4771 78.8558 47.2815 80.9148 47.5192C83.0208 47.756 85.2098 47.5476 87.4838 46.8941C89.7808 46.2167 92.0698 45.166 94.3508 43.7421C96.6318 42.3182 98.6978 40.642 100.549 38.7134C102.926 36.2373 104.281 34.0388 104.615 32.1181C104.973 30.2203 104.485 28.6316 103.151 27.352C102.271 26.5065 101.057 25.9596 99.5118 25.7113C98.0128 25.4621 96.2978 25.4623 94.3648 25.7121C92.4798 25.9609 90.4598 26.4692 88.3048 27.237C86.1498 28.0049 83.9998 28.9827 81.8538 30.1704L72.2118 38.0006ZM93.9188 19.3146C98.0328 18.5065 101.848 18.4164 105.361 19.0444C108.898 19.6485 111.893 21.1273 114.345 23.4809C115.869 24.9433 116.987 26.5424 117.699 28.2782C118.436 30.0369 118.696 31.9103 118.48 33.8986C118.311 35.886 117.63 37.9772 116.438 40.1722C115.27 42.3902 113.544 44.6896 111.259 47.0705C109.225 49.1895 107.011 51.0438 104.616 52.6335C102.268 54.2221 99.8448 55.5321 97.3448 56.5641C94.8458 57.5951 92.3168 58.3241 89.7578 58.7501C87.2458 59.1751 84.7978 59.2961 82.4138 59.1111C80.0518 58.9031 77.8118 58.3771 75.6948 57.5341C73.6228 56.6901 71.7898 55.5021 70.1948 53.9711C68.5998 52.4403 67.4218 50.7841 66.6618 49.0026C65.9018 47.2211 65.5018 45.3971 65.4638 43.5308L49.8311 56.2451L40.2598 47.0597L92.9738 4L98.0098 8.8328C99.0328 9.8153 99.5908 10.8308 99.6828 11.8792C99.7738 12.9276 99.2938 13.9994 98.2428 15.0946L93.9188 19.3146Z" fill="white"/>
<path d="M77.2118 34.0006C77.2888 35.4461 77.6538 36.7806 78.3098 38.0041C78.9878 39.2038 79.7788 40.2378 80.6838 41.1061C82.1128 42.4771 83.8558 43.2815 85.9148 43.5192C88.0208 43.756 90.2098 43.5476 92.4838 42.8941C94.7808 42.2167 97.0698 41.166 99.3508 39.7421C101.632 38.3182 103.698 36.642 105.549 34.7134C107.926 32.2373 109.281 30.0388 109.615 28.1181C109.973 26.2203 109.485 24.6316 108.151 23.352C107.271 22.5065 106.057 21.9596 104.512 21.7113C103.013 21.4621 101.298 21.4623 99.3648 21.7121C97.4798 21.9609 95.4598 22.4692 93.3048 23.237C91.1498 24.0049 88.9998 24.9827 86.8538 26.1704L77.2118 34.0006ZM98.9188 15.3146C103.033 14.5065 106.848 14.4164 110.361 15.0444C113.898 15.6485 116.893 17.1273 119.345 19.4809C120.869 20.9433 121.987 22.5424 122.699 24.2782C123.436 26.0369 123.696 27.9103 123.48 29.8986C123.311 31.886 122.63 33.9772 121.438 36.1722C120.27 38.3902 118.544 40.6896 116.259 43.0705C114.225 45.1895 112.011 47.0438 109.616 48.6335C107.268 50.2222 104.845 51.5323 102.345 52.5639C99.8458 53.5951 97.3168 54.3241 94.7578 54.7501C92.2458 55.1751 89.7978 55.2961 87.4138 55.1111C85.0518 54.9031 82.8118 54.3771 80.6948 53.5341C78.6228 52.6898 76.7898 51.5022 75.1948 49.9713C73.5998 48.4403 72.4218 46.7841 71.6618 45.0026C70.9018 43.2211 70.5018 41.3971 70.4638 39.5308L54.8308 52.2454L45.2598 43.0597L97.9738 0L103.01 4.8328C104.033 5.8153 104.591 6.8308 104.683 7.8792C104.774 8.9276 104.294 9.9994 103.243 11.0946L98.9188 15.3146Z" fill="white" fill-opacity="0.3"/>
</svg>
